<?xml version="1.0" standalone="no"?>
<!DOCTYPE svg PUBLIC "-//W3C//DTD SVG 20010904//EN"
 "http://www.w3.org/TR/2001/REC-SVG-20010904/DTD/svg10.dtd">
<svg version="1.0" xmlns="http://www.w3.org/2000/svg"
 width="1024.000000pt" height="1024.000000pt" viewBox="0 0 1024.000000 1024.000000"
 preserveAspectRatio="xMidYMid meet">

<g transform="translate(0.000000,1024.000000) scale(0.100000,-0.100000)"
fill="#000000" stroke="none">
<path d="M870 10227 c51 -41 122 -164 134 -231 10 -50 -7 -89 -62 -148 -61
-65 -93 -74 -209 -58 -89 12 -130 9 -119 -8 3 -5 66 -39 141 -77 193 -97 256
-167 255 -286 -1 -51 -4 -58 -58 -124 -67 -81 -78 -84 -200 -62 -176 33 -166
5 31 -82 66 -29 152 -94 185 -140 45 -62 58 -114 43 -169 -30 -112 -90 -155
-209 -151 -37 1 -66 -1 -65 -6 0 -4 21 -20 45 -36 108 -70 145 -97 179 -132
93 -96 70 -280 -43 -338 -31 -16 -57 -19 -143 -18 -139 2 -149 -9 -45 -47 130
-47 208 -102 275 -195 36 -49 37 -51 34 -128 -4 -73 -6 -81 -46 -133 -45 -60
-92 -88 -146 -88 -47 0 -97 -11 -97 -21 0 -4 19 -17 43 -27 24 -11 78 -50 121
-87 93 -81 136 -157 136 -239 0 -90 -68 -171 -154 -182 -85 -12 -83 -33 9
-104 160 -124 201 -284 94 -374 -38 -32 -56 -41 -116 -56 -24 -6 -43 -17 -43
-24 0 -18 75 -112 142 -176 107 -104 92 -183 -54 -276 -101 -65 -95 -89 42
-183 65 -44 84 -77 84 -145 0 -80 -29 -125 -121 -186 -64 -43 -68 -48 -71 -86
-3 -36 1 -45 28 -68 17 -14 37 -26 44 -26 25 0 67 -42 91 -90 65 -129 29 -250
-83 -279 -20 -6 -107 -15 -192 -21 -85 -6 -162 -14 -170 -18 -8 -3 -33 -7 -55
-8 -22 -1 -77 -7 -123 -13 -45 -6 -154 -12 -242 -14 l-160 -2 0 -84 0 -84 132
7 c223 11 401 26 439 37 24 8 41 22 53 44 40 73 127 113 185 84 33 -17 81 -60
81 -73 0 -6 24 -28 54 -49 57 -41 96 -103 96 -154 0 -39 -42 -121 -82 -160
-62 -60 -248 -83 -685 -84 l-273 -2 0 -176 0 -177 68 3 c37 2 86 8 109 13 23
6 63 10 88 10 26 0 54 4 64 10 10 5 72 12 137 14 134 6 223 18 232 32 11 16
85 34 140 34 48 0 52 -2 101 -56 28 -30 51 -62 51 -70 0 -8 4 -14 9 -14 9 0
23 -35 23 -55 -1 -53 -14 -82 -46 -99 -35 -19 -54 -20 -121 -11 -83 11 -244
25 -362 31 -143 7 -427 -11 -466 -29 -26 -12 -27 -15 -27 -99 l0 -86 38 4 c20
3 98 12 172 20 74 9 160 18 190 20 30 3 162 14 294 26 207 19 251 20 335 10
128 -16 186 -15 221 3 34 18 38 43 15 98 -23 56 -20 110 18 299 6 32 14 55 18
50 4 -4 37 -92 72 -197 36 -104 76 -221 91 -258 31 -83 77 -249 71 -256 -3 -2
-5 0 -5 5 0 5 -75 8 -177 6 -166 -2 -244 -8 -658 -47 -186 -18 -387 -32 -567
-42 l-128 -6 0 -721 0 -721 138 -1 c75 -1 211 -8 302 -18 91 -9 251 -23 355
-31 105 -8 208 -18 231 -21 53 -8 61 10 32 70 -30 62 -18 123 24 117 3 0 14
22 24 50 12 33 23 49 34 48 19 -3 125 45 134 60 4 6 17 11 29 11 18 0 26 10
37 42 12 34 20 43 38 43 27 1 52 29 52 58 0 10 3 16 8 13 4 -2 34 2 67 10 67
15 229 18 260 3 17 -8 16 -8 -7 -4 -36 7 -78 -10 -78 -32 0 -19 40 -67 62 -76
9 -3 0 -17 -26 -40 -36 -32 -43 -47 -45 -104 -1 -12 -22 -45 -47 -75 -72 -84
-97 -132 -90 -173 4 -19 11 -35 15 -35 9 0 12 -8 30 -62 8 -24 7 -27 -8 -19
-10 6 -36 30 -58 54 -44 48 -85 155 -99 255 -9 72 -16 79 -52 53 -17 -11 -37
-21 -45 -21 -15 0 -87 -63 -87 -76 0 -4 6 -1 13 5 19 15 30 2 15 -18 -10 -13
-10 -14 2 -3 8 6 17 12 21 12 10 0 32 -58 25 -68 -3 -5 2 -9 12 -8 14 1 17 -8
19 -44 1 -25 4 -61 6 -80 2 -20 -3 -49 -11 -68 -14 -29 -14 -34 -2 -42 11 -7
12 -10 2 -10 -7 0 -10 -5 -7 -10 4 -6 11 -8 16 -5 13 9 11 -19 -4 -35 -6 -8 0
-4 15 9 32 28 49 21 28 -12 -36 -58 -40 -73 -34 -122 9 -78 45 -121 154 -189
68 -43 132 -91 179 -134 l36 -33 -35 17 c-82 40 -318 180 -355 210 -47 38
-101 130 -155 263 l-39 94 -6 -39 c-3 -21 -9 -52 -12 -67 -6 -33 17 -117 32
-117 17 -1 61 -52 85 -98 14 -27 23 -62 24 -97 0 -33 5 -55 12 -55 6 0 12 -11
12 -25 0 -15 -6 -25 -14 -25 -8 0 -14 -4 -14 -10 0 -5 9 -10 20 -10 13 0 20
-7 20 -20 0 -11 4 -20 9 -20 5 0 13 -9 16 -20 4 -12 14 -19 23 -18 13 2 16 -3
14 -23 -2 -20 9 -35 55 -75 32 -28 65 -53 73 -57 38 -14 -29 -5 -75 11 l-50
17 27 -57 c28 -58 28 -78 0 -110 -21 -25 -3 -42 56 -58 78 -20 111 -33 106
-41 -5 -9 31 -14 221 -29 77 -6 176 -15 220 -20 44 -5 125 -9 181 -9 55 -1
125 -5 155 -11 30 -5 116 -14 191 -20 76 -6 152 -13 170 -15 30 -5 30 -4 -7 9
-39 14 -37 14 71 15 141 1 171 -5 189 -38 l15 -26 -6 29 c-7 28 -6 29 22 21
56 -14 273 -3 304 17 10 6 -15 7 -67 3 -56 -4 -83 -3 -83 4 0 6 14 11 31 11
16 0 28 4 25 9 -4 5 3 7 14 4 11 -3 20 -1 20 5 0 6 21 14 48 18 103 15 80 23
-58 18 -84 -2 -139 -1 -130 4 22 13 152 42 229 52 l66 9 -80 -5 c-44 -2 -110
-8 -147 -12 -47 -6 -77 -4 -95 4 l-28 12 35 8 35 9 -45 6 c-43 5 -44 6 -20 16
l25 12 -27 0 c-15 1 -31 7 -35 15 -4 7 -25 19 -45 25 -21 7 -38 16 -38 20 0 4
-10 13 -22 20 -20 10 -17 11 22 6 25 -3 90 -10 145 -15 55 -6 127 -15 160 -20
120 -20 117 -7 -5 20 l-125 29 66 -1 c36 -1 70 1 75 4 5 3 19 4 31 3 12 -1 25
5 28 13 3 10 16 13 40 10 27 -3 34 -1 31 9 -4 10 6 12 47 9 50 -4 51 -3 22 10
-39 17 -11 18 40 0 22 -8 83 -17 135 -20 52 -4 127 -9 165 -12 123 -11 65 4
-85 21 -80 9 -176 23 -215 32 l-70 16 90 27 c50 14 99 32 110 38 11 6 56 23
100 38 44 14 94 32 112 40 17 8 34 14 38 14 4 0 31 7 61 16 40 11 54 20 54 34
0 24 56 80 79 80 28 0 68 36 74 67 9 44 261 294 372 370 67 45 283 69 461 49
l82 -9 49 46 c27 26 67 54 87 62 41 17 233 38 281 30 66 -10 491 -13 601 -5
186 16 228 21 239 31 6 6 -13 99 -52 257 -34 136 -69 297 -77 357 -28 192 -38
257 -56 365 -10 58 -21 143 -25 190 -4 47 -11 102 -17 123 -18 74 -36 223 -43
357 -9 197 -54 943 -62 1030 -3 41 -5 82 -4 89 5 28 -26 -8 -49 -56 -46 -97
-110 -345 -140 -534 -11 -74 -23 -147 -25 -164 -8 -47 -34 -578 -39 -815 -14
-580 -17 -678 -27 -850 -11 -198 -15 -228 -31 -212 -18 18 -28 258 -26 662 1
414 6 570 29 1001 12 227 11 251 -5 320 -21 91 -22 114 -9 264 9 101 29 188
61 274 14 39 -31 -15 -59 -71 -71 -140 -82 -213 -79 -493 5 -552 5 -650 -6
-668 -20 -35 -41 38 -53 188 -20 245 -46 405 -66 405 -14 0 -32 -60 -40 -130
-11 -93 -33 -104 -69 -35 -17 32 -22 62 -24 153 l-4 112 -19 -24 c-11 -14 -29
-51 -41 -83 -21 -55 -22 -75 -22 -410 -1 -246 -4 -355 -12 -363 -21 -21 -51
34 -58 103 -10 96 -36 197 -51 197 -8 0 -16 -18 -20 -43 -11 -68 -84 -166
-125 -167 -20 0 -65 69 -86 132 -22 67 -7 193 36 303 17 44 34 87 37 95 11 28
-68 -55 -105 -110 -45 -68 -104 -211 -126 -309 -13 -55 -17 -123 -17 -265 -1
-203 -7 -267 -26 -273 -7 -3 -26 16 -44 40 -37 54 -107 92 -150 83 -43 -8 -74
31 -94 117 -18 78 -38 116 -51 96 -13 -21 -11 -112 2 -164 8 -28 13 -98 13
-160 0 -124 6 -193 28 -279 8 -32 12 -61 9 -64 -3 -2 -8 3 -11 12 -3 9 -7 23
-10 31 -11 35 -153 11 -199 -34 -39 -38 -52 -39 -61 -4 -6 24 -1 32 29 58 42
35 45 58 11 81 -22 15 -26 14 -55 -3 -17 -10 -33 -29 -36 -43 -12 -51 -17 -66
-44 -108 -15 -24 -37 -49 -50 -55 -13 -7 -28 -27 -35 -46 l-11 -33 -54 63
c-93 106 -97 109 -165 109 -43 0 -100 -13 -205 -45 -80 -25 -152 -50 -160 -55
-8 -5 -46 -29 -83 -52 -68 -43 -95 -61 -198 -129 -30 -20 -79 -48 -109 -63
-30 -16 -64 -33 -75 -39 -59 -32 -106 -53 -160 -72 -37 -13 -61 -27 -63 -38
-2 -9 18 -39 46 -69 l50 -53 -59 3 c-41 3 -78 -3 -121 -17 -77 -26 -100 -27
-97 -4 4 24 -10 63 -22 63 -5 0 -9 6 -9 13 0 7 -8 22 -18 33 -11 11 -19 34
-20 52 -1 44 -4 47 -88 88 -40 19 -74 40 -74 46 0 5 3 8 8 6 100 -51 144 -68
154 -62 7 4 69 44 138 89 422 276 618 360 918 394 84 9 174 43 211 80 17 17
21 33 21 90 0 68 1 70 47 121 26 28 92 89 147 133 56 45 135 113 176 152 44
41 105 85 145 105 64 33 74 35 156 33 l88 -2 88 58 c48 32 98 69 109 82 12 13
40 67 62 119 48 114 51 111 -93 104 -110 -5 -517 -39 -660 -54 -49 -5 -174
-15 -278 -21 -220 -14 -244 -10 -307 54 -40 41 -41 44 -36 92 3 28 15 79 26
113 11 35 20 87 20 115 0 60 23 207 35 226 12 20 25 76 40 171 7 47 16 99 20
116 6 27 4 33 -15 39 -26 8 -50 61 -50 110 0 39 22 100 47 127 10 11 13 26 9
42 -8 34 -56 46 -185 46 -139 0 -212 20 -271 73 -67 61 -72 74 -53 138 23 81
53 137 88 168 25 22 51 30 135 45 172 29 276 58 292 81 4 6 12 35 18 65 19 92
29 116 63 141 23 17 46 24 82 25 62 2 123 18 143 37 21 22 -3 101 -36 116 -18
9 -23 18 -20 39 2 22 8 28 35 30 25 2 34 9 39 27 3 13 23 39 45 58 43 39 43
57 2 76 l-25 12 6 101 c6 100 6 101 -26 149 -32 50 -42 57 -53 39 -3 -5 -19
-10 -36 -10 -32 0 -39 19 -14 40 13 11 9 19 -32 56 -26 24 -51 44 -55 44 -5 0
-8 11 -8 23 0 13 -9 32 -20 42 -12 11 -20 31 -20 49 0 34 -22 76 -64 121 -14
15 -26 32 -26 36 0 5 -10 5 -22 0 -13 -5 -30 -6 -38 -2 -29 12 -130 92 -146
116 -16 25 -70 49 -86 39 -6 -4 -66 -8 -133 -9 -76 -2 -142 -9 -172 -18 -27
-9 -79 -15 -120 -14 -57 1 -76 -3 -92 -17 -16 -15 -29 -17 -68 -11 -116 16
-153 14 -197 -11 -24 -13 -72 -50 -107 -82 -35 -31 -81 -70 -101 -85 -45 -33
-81 -91 -107 -175 -24 -74 -32 -90 -68 -130 -31 -37 -59 -41 -68 -12 -3 11
-12 20 -20 20 -7 0 -40 20 -73 45 -56 43 -62 50 -72 102 -10 44 -24 1031 -20
1353 0 22 8 41 20 52 26 21 25 40 -4 67 -31 29 -67 20 -97 -23 -12 -18 -35
-40 -51 -49 -18 -10 -31 -28 -34 -47 -4 -16 -13 -30 -20 -30 -24 0 -38 -43
-34 -110 5 -113 2 -164 -13 -204 -13 -39 -37 -61 -37 -34 0 22 -38 48 -71 48
-40 0 -79 22 -118 65 -71 82 -108 203 -78 261 24 46 78 89 137 109 30 11 62
25 71 33 17 14 30 76 21 101 -3 7 -35 27 -71 43 -86 39 -137 89 -156 152 -20
67 -19 91 6 136 26 46 116 94 195 104 68 8 75 -2 85 -117 12 -139 17 -157 55
-196 18 -20 34 -39 34 -43 0 -4 6 -5 14 -2 8 3 35 -16 65 -46 29 -29 54 -50
57 -47 24 23 29 627 8 930 -7 104 -4 121 36 167 37 43 38 69 5 108 -32 38 -49
125 -42 212 4 36 1 224 -5 418 l-12 352 -415 0 c-330 -1 -413 -3 -401 -13z
m458 -148 c83 -29 128 -190 86 -312 -18 -55 -27 -63 -76 -72 -36 -7 -40 -5
-101 56 -35 35 -73 84 -85 109 -20 43 -20 47 -5 93 12 37 29 59 70 93 59 48
65 49 111 33z m92 -544 c14 -15 24 -43 30 -91 5 -38 14 -91 20 -119 6 -27 13
-70 16 -94 2 -25 9 -48 16 -52 14 -9 -7 -65 -28 -73 -17 -7 -18 -33 -1 -39 9
-4 9 -6 0 -6 -6 -1 -15 4 -18 9 -3 6 -15 10 -25 10 -11 0 -24 9 -30 20 -6 11
-18 20 -28 20 -57 1 -177 92 -213 162 -24 47 -25 120 -1 155 44 69 102 113
160 123 51 8 77 2 102 -25z m27 -528 c1 -2 8 -85 15 -186 14 -211 17 -204 -77
-195 -87 8 -123 22 -165 63 -41 39 -60 90 -60 159 0 34 6 49 33 77 44 48 158
96 212 89 21 -3 40 -6 42 -7z m26 -1632 c38 -16 47 -31 47 -80 0 -18 4 -35 9
-37 22 -7 9 -258 -13 -258 -6 0 -29 -9 -51 -20 -56 -29 -83 -25 -146 20 -71
50 -93 93 -91 176 1 95 43 163 122 197 45 20 79 20 123 2z m-7 -563 c27 -18
63 -137 57 -187 -18 -133 -51 -180 -121 -172 -50 5 -89 38 -129 105 -68 115
18 255 162 261 11 0 25 -3 31 -7z m4 -531 c11 -17 35 -60 52 -97 26 -56 30
-72 22 -102 -11 -45 -41 -62 -113 -62 -45 0 -59 5 -92 31 -49 38 -72 90 -64
140 7 42 24 60 87 94 58 32 82 31 108 -4z m420 -217 c0 -8 16 -49 36 -91 30
-63 36 -83 31 -121 -6 -52 -10 -46 104 -160 55 -55 99 -110 120 -150 18 -34
60 -91 94 -125 53 -56 68 -65 135 -85 41 -13 98 -32 127 -42 28 -10 80 -22
115 -26 94 -10 107 -19 157 -114 13 -25 30 -52 37 -61 23 -26 16 -66 -18 -106
-63 -75 -124 -135 -152 -150 -24 -12 -27 -19 -23 -46 11 -63 35 -153 50 -188
8 -20 18 -64 22 -97 4 -34 11 -64 15 -67 5 -3 11 -24 15 -48 4 -23 15 -58 25
-77 10 -19 28 -69 40 -110 12 -41 36 -103 52 -137 16 -34 37 -100 47 -145 10
-46 25 -97 34 -115 10 -18 17 -48 17 -67 0 -28 -7 -40 -39 -65 -82 -65 -185
-91 -432 -111 -75 -6 -174 -15 -220 -20 -72 -8 -247 -21 -461 -33 -44 -2 -58
0 -62 12 -2 9 -64 189 -136 401 -73 212 -149 435 -170 496 -69 202 -95 235
-150 188 -8 -7 -26 -14 -40 -16 -23 -3 -25 -6 -22 -50 3 -36 0 -48 -15 -56
-15 -9 -20 -5 -34 31 -15 40 -15 43 4 65 11 12 25 22 31 22 6 0 30 8 53 17 37
16 41 20 36 45 -8 41 3 73 38 107 59 60 49 145 -23 202 -61 49 -71 78 -66 184
6 106 33 173 83 208 16 12 32 24 35 28 3 3 26 15 52 27 25 11 52 30 58 42 10
19 9 26 -11 44 -13 12 -52 32 -85 45 -36 13 -75 37 -95 57 -32 33 -34 39 -34
104 0 79 14 101 81 130 65 28 101 16 145 -50 61 -91 88 -111 157 -117 l61 -4
23 43 c14 27 25 71 30 118 7 74 27 214 34 238 2 7 21 12 49 12 34 0 45 -4 45
-16z"/>
<path d="M3784 10223 c18 -60 46 -288 48 -404 l3 -136 23 34 c13 19 26 33 28
30 2 -2 -5 -29 -15 -60 -11 -32 -16 -57 -11 -57 12 0 40 29 40 41 0 6 16 17
35 25 20 8 33 19 30 24 -8 13 -11 13 -30 -6 -21 -22 -29 -12 -21 28 7 39 104
200 116 193 8 -5 24 25 17 32 -3 2 -18 -10 -36 -26 -17 -16 -31 -26 -31 -23 0
20 -68 -63 -92 -113 -16 -33 -26 -49 -22 -35 10 42 42 104 69 132 14 15 60 53
103 85 88 65 107 85 129 133 8 19 31 54 50 78 l34 42 -236 0 c-220 0 -236 -1
-231 -17z m335 -110 c-82 -105 -114 -126 -48 -31 43 61 87 106 107 108 1 0
-25 -35 -59 -77z"/>
<path d="M4703 10182 c-10 -56 -10 -57 -12 -14 -1 41 -15 52 -33 27 -5 -6 -8
-5 -8 3 0 7 -4 10 -10 7 -15 -9 -12 -38 3 -29 6 4 2 -3 -10 -15 -12 -11 -27
-21 -33 -21 -6 0 -9 -4 -6 -8 2 -4 -15 -14 -40 -21 -36 -11 -44 -17 -44 -37 0
-15 6 -24 16 -24 11 0 15 6 11 20 -3 11 -1 20 4 20 9 0 13 -15 10 -33 -1 -5 3
-6 9 -2 5 3 10 18 10 32 0 15 3 23 7 20 12 -13 3 -101 -13 -119 -12 -12 -15
-27 -10 -49 6 -33 -9 -73 -25 -64 -10 7 -12 -4 -9 -52 1 -18 -3 -33 -9 -33 -6
0 -8 7 -5 15 4 10 0 15 -11 15 -14 0 -16 -6 -11 -30 3 -17 1 -30 -4 -30 -6 0
-9 3 -8 8 1 4 -2 25 -7 47 -8 37 -9 38 -16 15 -11 -40 -11 -98 1 -80 7 10 9
-19 8 -90 -2 -104 -2 -104 -7 -30 -7 90 -19 115 -50 105 -12 -3 -19 -11 -16
-16 4 -5 2 -9 -3 -9 -5 0 -5 -23 0 -56 5 -31 7 -62 5 -68 -3 -6 -8 15 -12 47
-4 31 -12 57 -17 57 -5 0 0 14 12 31 12 16 19 33 15 37 -4 4 -10 1 -12 -5 -3
-7 -9 -13 -15 -13 -6 0 -8 7 -5 15 4 8 2 17 -3 20 -6 4 -10 -10 -10 -31 0 -31
-2 -35 -15 -24 -12 10 -18 8 -34 -11 -18 -21 -18 -26 -5 -46 8 -12 14 -30 14
-39 0 -13 -3 -14 -15 -4 -12 10 -20 9 -39 -4 -14 -9 -32 -13 -41 -10 -11 5
-14 2 -9 -11 6 -14 16 -16 50 -12 23 2 48 1 56 -4 8 -6 -6 -9 -39 -9 -28 0
-59 -3 -67 -6 -12 -5 -15 -2 -10 12 5 16 4 16 -5 4 -9 -12 -11 -13 -11 -1 0 8
-2 12 -5 9 -3 -3 -1 -17 4 -32 11 -28 16 -27 -73 -30 -16 -1 -31 -7 -34 -14
-2 -7 -13 -12 -25 -11 -21 0 -21 1 -2 10 l20 9 -20 -3 c-15 -2 -19 -9 -17 -28
2 -15 -5 -32 -18 -44 -11 -10 -20 -23 -20 -29 0 -6 5 -5 12 2 20 20 30 14 11
-6 -10 -10 -24 -28 -32 -39 -8 -12 -21 -19 -30 -16 -9 2 -5 -3 9 -11 14 -8 19
-15 13 -16 -7 0 -13 -4 -13 -9 0 -6 12 -6 31 1 16 6 33 8 36 4 4 -3 -1 -6 -9
-6 -9 0 -36 -20 -61 -45 -26 -25 -40 -45 -32 -45 7 0 15 3 17 8 3 7 72 62 97
77 29 17 -1 -17 -40 -45 -37 -26 -99 -94 -71 -76 7 4 12 2 12 -5 0 -7 11 -2
25 11 14 13 28 21 31 17 4 -3 16 -2 28 4 11 6 5 -3 -14 -20 -23 -21 -34 -39
-33 -54 3 -21 2 -21 -6 -2 -5 12 -5 25 1 33 7 8 7 12 -1 12 -11 0 -15 -15 -11
-35 1 -5 2 -18 3 -27 1 -10 2 -18 3 -18 0 0 25 13 55 30 30 16 59 30 64 30 6
0 -13 -13 -40 -29 -57 -32 -96 -70 -60 -58 20 7 20 7 1 -8 -11 -8 -24 -15 -30
-15 -5 0 -6 -3 -3 -7 4 -3 1 -13 -5 -22 -12 -15 -11 -15 7 0 40 32 49 31 20
-1 l-30 -33 30 19 30 18 -27 -30 c-16 -17 -28 -34 -28 -39 0 -5 -10 -19 -22
-32 -27 -29 -15 -43 15 -16 12 11 38 30 57 42 l35 22 -34 -28 c-65 -52 -87
-75 -68 -69 19 6 18 7 22 -47 3 -40 -11 -58 -27 -36 -8 11 -9 10 -4 -3 3 -10
1 -20 -4 -23 -6 -4 -10 -12 -10 -18 0 -8 3 -7 9 2 5 8 14 10 21 6 9 -5 11 -4
6 3 -8 14 3 15 22 3 14 -8 67 31 67 49 0 17 12 19 12 2 0 -9 -11 -29 -25 -44
-15 -16 -22 -33 -18 -43 3 -9 0 -18 -9 -21 -16 -6 -11 -24 6 -24 6 0 8 4 5 8
-3 5 6 15 19 22 13 7 21 18 18 24 -3 6 -3 8 2 4 4 -4 22 3 39 15 l31 22 -31
-40 c-17 -22 -36 -49 -43 -60 -8 -13 -11 -14 -7 -3 4 14 2 15 -22 2 -15 -8
-32 -14 -38 -14 -19 0 -44 -34 -35 -49 7 -10 15 -10 42 4 45 23 46 24 29 36
-13 9 -13 10 0 6 8 -2 16 -13 18 -26 2 -12 0 -20 -5 -19 -4 1 -18 -2 -31 -6
-20 -7 -21 -10 -11 -24 11 -14 11 -15 -1 -4 -23 20 -32 14 -25 -18 6 -26 4
-30 -14 -30 -11 0 -22 -4 -25 -9 -3 -4 -29 -11 -57 -15 -29 -4 -61 -14 -73
-22 -11 -8 -28 -14 -38 -14 -11 0 -15 -5 -12 -15 4 -8 13 -15 21 -15 8 0 12 4
8 9 -9 15 14 24 29 12 11 -9 18 -8 28 3 16 15 31 19 63 17 14 -1 9 -7 -20 -21
-22 -11 -46 -19 -52 -20 -7 0 -13 -4 -13 -10 0 -5 -6 -7 -13 -4 -7 2 -27 -2
-43 -11 l-29 -15 27 0 c14 0 28 5 30 11 2 5 11 7 21 4 22 -9 22 -22 0 -22 -58
1 -78 -4 -63 -13 11 -7 11 -10 2 -10 -7 0 -10 -4 -7 -10 4 -6 -5 -10 -20 -10
-15 0 -36 -5 -48 -11 -22 -12 -22 -12 -4 9 11 12 26 18 35 15 15 -4 15 -3 2 6
-10 7 -11 11 -2 11 6 0 12 4 12 8 0 4 -9 8 -19 8 -11 0 -19 -3 -19 -6 2 -19
-7 -29 -44 -50 -22 -12 -38 -18 -34 -11 12 19 -2 12 -27 -13 -26 -26 -21 -53
8 -42 15 5 16 4 5 -9 -10 -13 -9 -15 8 -15 12 0 24 -5 28 -11 5 -9 -1 -10 -20
-5 -34 8 -73 -2 -73 -20 0 -12 4 -12 25 2 28 18 44 10 17 -10 -18 -13 -18 -14
1 -24 16 -10 13 -11 -19 -8 -20 3 -35 1 -32 -4 3 -5 -1 -11 -7 -14 -7 -3 7 -3
31 0 41 6 44 5 29 -10 -9 -9 -24 -13 -33 -10 -10 4 -15 2 -13 -7 2 -8 -4 -15
-12 -15 -8 -1 -21 -2 -29 -3 -11 -1 -11 -4 -1 -16 11 -13 15 -13 41 0 32 17
49 19 49 6 0 -5 -10 -11 -22 -13 -28 -4 -37 -35 -11 -33 10 0 24 4 31 9 6 4
12 3 12 -3 0 -10 48 6 60 20 3 3 13 8 23 12 10 4 15 11 12 17 -3 5 -2 10 3 10
6 0 12 -7 16 -15 4 -11 -9 -22 -44 -40 -47 -24 -70 -45 -34 -31 14 5 15 4 5
-8 -7 -8 -19 -12 -27 -9 -8 3 -14 1 -14 -4 0 -18 13 -23 28 -10 13 10 15 9 9
-5 -5 -15 -3 -16 18 -6 13 6 22 16 18 22 -3 6 -3 8 2 4 4 -4 21 2 37 13 37 27
46 20 13 -11 -31 -29 -33 -50 -2 -24 12 10 3 -2 -20 -26 -43 -47 -83 -133 -57
-123 8 3 11 9 8 14 -5 8 10 13 29 10 5 -1 6 3 2 9 -3 5 -1 10 5 10 10 0 30 39
45 84 3 10 8 16 11 13 10 -9 -48 -127 -62 -127 -8 0 -14 -4 -14 -10 0 -13 7
-13 33 2 21 12 26 13 55 16 8 1 10 7 6 15 -4 6 -4 9 0 6 10 -10 87 63 82 77
-3 7 5 20 17 31 l22 18 -20 -24 c-19 -24 -20 -24 -1 -17 19 6 19 6 3 -12 -40
-44 -8 -29 45 21 10 9 18 13 18 9 0 -10 -63 -72 -74 -72 -4 0 -23 -12 -41 -26
-23 -17 -32 -31 -28 -41 5 -12 3 -14 -8 -8 -12 8 -12 6 0 -8 10 -13 17 -14 27
-6 7 6 18 8 24 4 5 -3 10 -1 10 4 0 16 38 51 42 39 2 -6 17 8 32 31 16 23 30
41 32 41 2 0 -4 -16 -12 -35 -8 -20 -12 -41 -8 -48 4 -7 3 -8 -1 -4 -5 4 -19
-9 -32 -30 -12 -21 -26 -38 -30 -38 -5 0 -7 -3 -5 -7 1 -5 -4 -8 -11 -8 -7 0
-18 -15 -25 -33 -15 -41 -15 -58 -1 -34 6 9 14 15 20 12 5 -3 6 1 3 10 -4 11
2 22 17 33 13 9 43 34 67 55 23 22 42 36 42 31 0 -5 14 15 30 44 17 28 32 52
34 52 2 0 3 -11 2 -24 0 -13 -4 -22 -7 -20 -3 1 -12 -12 -19 -31 -8 -19 -17
-35 -22 -35 -4 0 -8 -6 -8 -12 0 -7 -9 -24 -20 -38 -11 -14 -20 -31 -20 -39 0
-21 32 16 50 57 8 17 18 32 21 32 4 0 9 8 13 18 3 9 26 49 52 87 54 82 49 48
-6 -40 -20 -33 -46 -78 -58 -100 -27 -51 -86 -117 -97 -107 -4 4 -5 2 -2 -4 4
-7 -3 -14 -17 -18 -24 -6 -45 -36 -25 -36 6 0 7 -5 3 -12 -4 -7 -3 -8 4 -4 6
4 9 12 6 20 -3 7 7 18 22 25 23 10 26 10 21 -4 -10 -24 1 -17 18 13 10 16 14
19 11 7 -5 -16 -1 -14 19 8 14 16 23 32 20 37 -3 5 4 14 15 20 11 6 20 16 20
23 0 17 48 115 49 100 1 -7 -8 -29 -18 -50 -10 -21 -22 -50 -25 -65 -5 -23 -3
-27 11 -22 10 3 6 -2 -9 -11 -16 -8 -28 -20 -28 -25 0 -5 -7 -15 -15 -23 -8
-8 -16 -21 -17 -28 -4 -17 -24 -39 -36 -39 -17 0 -34 -27 -22 -35 6 -4 18 1
26 11 15 18 15 18 10 1 -3 -11 -2 -16 4 -12 6 3 10 12 10 19 0 8 6 19 14 26 8
6 12 18 9 26 -4 10 0 12 11 8 18 -7 21 -20 6 -29 -5 -3 -10 -11 -10 -18 0 -6
11 4 24 23 13 19 22 40 19 46 -2 7 0 15 6 19 7 4 8 -1 4 -12 -5 -15 -3 -16 8
-5 7 6 18 12 24 12 6 0 6 -3 -1 -8 -10 -6 -54 -76 -54 -85 0 -2 9 -3 20 -4 15
-1 20 4 20 25 0 15 4 22 8 16 7 -11 41 -15 40 -5 -2 24 4 41 16 41 8 0 17 6
20 13 3 6 3 -1 0 -18 -4 -23 -3 -27 5 -15 10 14 16 7 12 -14 -1 -4 10 -5 24
-2 15 4 25 2 25 -5 0 -6 8 -3 17 7 21 21 31 1 11 -23 -9 -12 -9 -15 0 -9 18
11 15 -5 -5 -21 -17 -13 -16 -13 3 -4 13 6 24 7 31 0 5 -5 28 -11 51 -13 23
-2 49 -9 57 -16 9 -7 18 -10 21 -7 3 3 19 -10 36 -29 17 -19 40 -34 52 -34 23
0 50 -26 68 -64 5 -13 25 -31 44 -39 37 -18 74 -69 74 -103 0 -12 6 -24 14
-27 12 -5 26 -49 27 -89 0 -9 7 -19 15 -22 8 -3 14 -12 14 -20 0 -8 13 -34 29
-58 35 -53 51 -111 27 -102 -22 8 -20 1 9 -42 14 -20 23 -39 21 -42 -3 -2 14
-32 38 -66 92 -132 127 -236 140 -411 4 -58 -10 -238 -24 -310 -22 -110 -21
-149 5 -219 44 -116 50 -121 178 -130 43 -3 83 -8 88 -12 5 -3 9 -17 9 -32 0
-21 2 -24 10 -12 8 13 11 12 25 -5 26 -32 73 -136 84 -184 9 -40 7 -45 -16
-67 -14 -13 -30 -24 -34 -24 -16 0 -9 -37 12 -64 13 -17 30 -26 48 -26 28 0
28 -1 24 -45 -5 -40 -2 -48 29 -79 36 -36 89 -56 149 -56 34 0 133 -45 172
-79 33 -28 57 -89 46 -118 -7 -20 -5 -34 9 -62 28 -53 101 -75 252 -74 138 0
220 18 315 69 95 50 216 124 240 147 11 11 55 46 97 78 l78 60 36 -41 c39 -43
91 -122 135 -208 15 -28 37 -64 48 -78 12 -15 21 -33 21 -41 0 -24 43 -73 64
-73 11 0 27 -7 37 -16 17 -15 20 -15 45 5 15 12 38 21 51 21 13 0 34 5 45 11
19 10 26 7 60 -32 42 -47 55 -72 63 -121 3 -18 19 -50 36 -72 l29 -40 153 -3
152 -2 98 97 c53 53 97 90 97 82 0 -39 -65 -140 -136 -212 -21 -20 -45 -49
-54 -63 -10 -15 -21 -26 -25 -25 -4 1 -18 -15 -31 -34 -14 -20 -29 -36 -34
-36 -6 0 -10 -7 -10 -15 0 -9 -8 -19 -17 -22 -9 -4 -31 -22 -47 -40 -17 -18
-33 -33 -36 -33 -3 0 -35 -27 -70 -60 -35 -33 -68 -60 -73 -60 -4 0 -52 -31
-105 -70 -53 -38 -108 -75 -122 -82 -14 -6 -38 -22 -55 -34 -16 -11 -55 -34
-85 -49 -30 -15 -95 -51 -145 -80 -49 -28 -117 -62 -150 -74 -33 -12 -87 -35
-120 -50 -94 -44 -119 -55 -130 -57 -26 -4 -75 -27 -75 -36 0 -5 -10 -8 -22
-6 -16 2 -24 -3 -28 -22 -4 -14 -12 -24 -18 -22 -21 4 -13 -17 11 -29 12 -7
26 -18 30 -26 7 -11 12 -11 23 -2 11 9 14 8 14 -2 0 -8 -9 -20 -20 -27 -19
-11 -19 -13 -3 -32 11 -13 30 -20 52 -20 35 0 35 0 13 -16 -28 -19 -28 -34 -1
-34 13 0 19 -5 16 -13 -3 -8 4 -13 22 -12 24 0 26 -3 26 -47 0 -25 3 -49 6
-52 4 -4 2 -25 -4 -47 -8 -35 -7 -43 12 -63 17 -18 20 -30 15 -51 -5 -20 -2
-31 8 -39 8 -6 18 -23 21 -38 4 -14 18 -40 32 -56 14 -17 25 -35 25 -41 0 -6
6 -11 14 -11 8 0 16 -7 20 -15 3 -8 12 -15 21 -15 8 0 15 -6 15 -14 0 -23 55
-78 76 -76 31 3 63 -11 69 -31 4 -11 10 -17 14 -14 14 8 48 -29 45 -49 -1 -10
6 -34 16 -53 16 -31 19 -33 29 -16 9 15 12 16 20 3 8 -12 11 -11 17 5 12 32
47 65 71 65 12 0 29 10 38 23 12 17 17 19 24 8 7 -11 16 -8 44 13 20 15 43 38
52 52 9 14 21 24 28 22 15 -3 104 87 129 130 10 18 20 43 22 54 4 29 42 43 52
20 12 -26 12 -52 2 -52 -6 0 -8 7 -5 15 4 8 3 17 -2 19 -12 8 -10 -27 2 -42 8
-10 7 -16 -2 -22 -8 -4 -11 -13 -7 -19 4 -6 -1 -25 -10 -42 -8 -17 -14 -42
-11 -55 2 -14 -1 -25 -9 -28 -8 -3 -14 -15 -14 -26 0 -14 4 -19 13 -14 8 5 8
3 -2 -9 -7 -9 -17 -15 -21 -12 -10 6 -8 -15 3 -32 4 -6 2 -15 -5 -20 -7 -4
-14 -17 -16 -28 -6 -47 -22 -77 -38 -71 -8 3 -11 0 -8 -9 3 -7 -2 -29 -11 -48
-9 -19 -15 -38 -14 -43 4 -21 -2 -28 -12 -14 -8 11 -9 7 -6 -20 3 -19 3 -29 0
-22 -4 10 -8 10 -19 1 -8 -6 -11 -16 -8 -21 3 -5 3 -25 0 -44 -5 -25 -12 -34
-26 -34 -11 0 -24 -10 -30 -22 -11 -22 -10 -22 4 -4 21 25 32 13 14 -13 -8
-12 -18 -18 -22 -13 -4 4 -5 -5 -1 -21 6 -21 4 -26 -7 -22 -16 6 -52 -55 -54
-92 -1 -27 11 -30 25 -6 10 17 10 17 11 0 0 -10 5 -15 10 -12 6 4 27 9 48 11
32 4 135 32 197 54 11 3 58 19 105 34 82 27 249 90 280 105 13 6 203 68 236
77 6 1 15 33 19 71 4 37 9 81 10 98 2 16 6 75 10 130 5 92 17 230 31 365 3 30
7 71 9 90 12 140 49 450 61 512 4 21 2 28 -10 28 -10 0 -13 6 -9 16 5 13 8 13
15 2 6 -8 8 6 5 40 -2 32 -1 48 4 40 6 -8 9 3 10 32 4 85 5 105 13 145 5 22
10 56 11 75 18 208 74 540 91 540 6 0 18 -7 25 -17 13 -15 12 -15 -6 -6 -19
10 -20 8 -21 -33 0 -30 4 -44 13 -44 7 0 13 -5 13 -11 0 -5 -4 -8 -9 -5 -5 3
-11 -4 -14 -15 -4 -16 -2 -19 11 -15 14 5 14 4 -1 -8 -18 -14 -18 -16 2 -57
20 -42 31 -120 12 -90 -6 10 -10 10 -16 1 -9 -14 -6 -17 20 -22 16 -2 20 2 20
25 -1 15 3 27 7 27 4 0 8 -10 8 -22 0 -13 2 -32 4 -43 2 -11 1 -14 -1 -7 -5
14 -23 17 -23 3 0 -5 7 -25 16 -46 8 -20 13 -42 11 -48 -2 -7 -7 3 -11 20 -4
18 -12 35 -17 38 -5 4 -9 16 -9 28 0 16 -3 18 -9 8 -6 -9 -11 -10 -15 -2 -4 6
-12 11 -18 11 -7 0 1 -13 16 -29 15 -16 28 -35 29 -42 2 -8 6 -19 10 -25 4 -7
0 -15 -9 -18 -9 -4 -14 -13 -10 -21 3 -8 2 -15 -3 -15 -8 0 -10 -14 -13 -67 0
-10 6 -39 15 -65 8 -27 11 -45 6 -42 -5 3 -9 12 -9 20 0 8 -5 14 -10 14 -6 0
-8 -14 -5 -32 4 -27 3 -30 -6 -15 -6 10 -13 30 -15 45 -3 14 -8 29 -11 32 -8
7 2 -71 12 -95 8 -18 7 -18 -6 -5 -9 9 -18 21 -20 28 -3 8 -4 -23 -4 -68 0
-45 -3 -84 -7 -86 -12 -7 -10 -54 2 -54 6 0 10 -4 10 -10 0 -5 -7 -7 -15 -4
-15 6 -19 -7 -15 -55 1 -14 -2 -21 -9 -17 -13 8 -3 -53 10 -68 12 -14 11 -29
-1 -21 -16 10 -11 -11 5 -25 20 -17 15 -52 -7 -56 -12 -1 -18 5 -19 19 0 12
-3 16 -6 9 -3 -7 0 -26 6 -42 6 -18 6 -30 0 -30 -5 0 -9 6 -9 14 0 8 -4 17 -8
20 -5 3 -6 -8 -4 -25 2 -16 8 -31 12 -34 12 -8 -13 -55 -30 -56 -10 0 -11 -2
-2 -6 15 -6 16 -49 2 -58 -8 -5 -8 -11 -1 -19 7 -8 7 -16 0 -23 -10 -10 -2
-46 10 -39 4 3 6 -20 5 -51 -1 -31 2 -67 7 -80 5 -12 5 -23 0 -23 -11 0 -23
59 -14 73 4 6 1 7 -6 2 -7 -4 -11 -15 -8 -25 2 -9 -2 -28 -9 -41 -18 -32 -17
-102 1 -146 8 -20 13 -38 10 -41 -2 -3 -9 7 -14 22 -15 37 -21 32 -14 -11 4
-24 3 -34 -5 -29 -13 8 4 -61 21 -84 9 -12 9 -13 -3 -2 -22 19 -26 15 -23 -20
3 -40 -6 -90 -16 -84 -4 3 -5 -11 -3 -30 3 -21 0 -34 -7 -34 -6 0 -11 -5 -11
-11 0 -6 7 -9 15 -5 18 7 18 8 0 -43 -8 -23 -10 -39 -5 -36 13 8 13 -1 0 -25
-8 -16 -8 -18 5 -14 9 4 15 0 15 -10 0 -9 6 -13 15 -10 8 4 12 10 9 15 -3 5 0
9 5 9 6 0 11 -3 11 -7 0 -5 11 -9 25 -9 14 -1 25 1 25 5 0 3 18 5 41 5 48 -1
72 -19 40 -29 -14 -4 -21 -15 -22 -33 -2 -44 2 -55 26 -74 13 -10 26 -27 30
-37 4 -13 23 -22 66 -30 57 -12 61 -11 89 12 16 14 34 27 39 29 11 4 51 119
45 129 -2 4 -38 10 -79 14 -44 4 -75 12 -76 19 0 6 -2 27 -3 46 -5 56 22 169
60 257 8 17 14 36 14 42 0 6 11 42 23 79 13 37 22 72 20 79 -2 6 1 14 6 18 13
7 15 52 3 59 -10 6 4 202 22 305 21 117 12 336 -18 446 -8 28 -19 82 -25 120
-6 39 -21 112 -32 163 -12 51 -18 99 -15 107 3 8 0 17 -6 21 -7 4 -8 3 -4 -4
4 -7 2 -12 -3 -12 -15 0 -14 27 1 36 8 5 7 10 -4 18 -9 7 -17 36 -20 81 l-6
70 13 -54 c8 -29 11 -60 8 -67 -3 -8 0 -14 6 -14 14 0 14 50 1 85 -6 15 -7 32
-3 38 9 15 22 -51 22 -120 1 -28 6 -55 11 -58 6 -4 10 7 10 25 0 51 30 220 56
315 14 50 27 99 29 109 3 11 9 24 14 29 13 13 7 -36 -15 -116 -9 -34 -18 -79
-20 -100 -1 -22 -8 -45 -15 -53 -10 -12 -9 -13 7 -7 17 6 17 5 6 -10 -8 -9
-11 -21 -7 -27 3 -5 1 -10 -5 -10 -8 0 -8 -6 0 -20 6 -11 7 -20 2 -20 -5 0 -8
-21 -6 -48 10 -141 27 -173 38 -70 14 135 39 294 49 313 6 11 11 31 12 45 3
28 51 140 60 140 3 0 3 -4 0 -10 -3 -5 -2 -10 4 -10 5 0 12 6 15 13 3 6 4 -1
0 -17 -3 -18 0 -32 8 -38 8 -5 3 -7 -14 -4 -15 3 -31 0 -34 -6 -4 -6 -2 -8 4
-4 16 10 25 -13 12 -29 -7 -9 -8 -15 -2 -15 5 0 13 7 16 16 3 9 11 12 18 8 7
-4 10 -4 6 1 -10 11 20 38 33 29 8 -4 9 1 4 16 -5 15 -4 20 3 16 7 -4 10 4 9
20 -1 15 4 29 11 31 6 3 12 -3 12 -12 0 -11 5 -15 15 -11 10 4 15 -1 16 -17 0
-19 2 -18 16 10 9 17 25 34 35 37 11 2 17 2 14 -1 -3 -4 -1 -12 5 -19 16 -19
-8 -57 -32 -51 -15 4 -17 2 -9 -13 13 -24 13 -40 0 -40 -5 0 -6 7 -3 17 4 11
3 14 -5 9 -7 -4 -10 -17 -6 -32 5 -19 2 -24 -12 -25 -11 0 -14 -3 -6 -6 6 -2
12 -14 11 -26 0 -21 -1 -21 -10 -2 -8 18 -9 18 -8 -5 2 -40 -2 -66 -8 -52 -2
6 -9 12 -14 12 -6 0 -5 -9 1 -21 6 -11 9 -25 6 -32 -2 -7 -5 -5 -5 5 -1 9 -5
20 -11 23 -6 4 -7 -6 -3 -26 5 -27 4 -31 -10 -26 -10 4 -17 2 -17 -3 0 -6 7
-10 15 -10 8 0 15 -6 15 -12 0 -9 3 -8 10 2 5 8 13 11 17 6 4 -4 0 -13 -10
-20 -21 -16 -23 -56 -2 -56 8 0 15 -9 15 -20 0 -11 5 -20 10 -20 6 0 10 15 10
34 0 22 6 36 16 40 9 3 14 12 11 20 -6 15 28 53 35 39 3 -4 3 -3 2 4 -2 6 10
26 26 44 l28 33 7 -37 c4 -20 11 -35 15 -32 5 3 10 -20 12 -50 3 -57 -7 -76
-15 -27 -3 16 -5 10 -3 -14 1 -28 -3 -40 -10 -37 -6 2 -14 -6 -17 -17 -4 -14
-10 -19 -18 -14 -8 4 -10 3 -5 -4 4 -6 2 -21 -4 -32 -12 -23 -5 -60 12 -60 6
0 8 10 4 23 -3 14 1 32 9 43 13 17 16 17 26 4 8 -12 9 -8 5 15 l-6 30 15 -25
16 -25 -3 37 c-2 20 0 34 4 32 5 -3 6 23 3 58 -5 71 9 60 18 -14 4 -29 3 -48
-3 -48 -6 0 -10 -7 -10 -15 0 -23 17 -18 24 8 5 17 8 19 15 9 6 -10 11 -6 19
18 7 17 16 29 22 25 5 -3 10 1 10 10 0 9 5 13 10 10 6 -3 10 1 10 9 0 9 7 16
15 16 12 0 14 -7 9 -28 -4 -15 -11 -28 -16 -30 -4 -2 -8 -7 -8 -12 0 -4 -14
-24 -32 -44 -23 -27 -34 -33 -41 -24 -5 8 -6 5 -2 -9 4 -16 0 -25 -15 -33 -11
-6 -20 -17 -20 -25 0 -9 -6 -12 -15 -9 -16 7 -21 -11 -6 -21 5 -3 -1 -17 -15
-32 -14 -15 -32 -41 -40 -59 -8 -17 -24 -41 -36 -54 -11 -12 -20 -33 -20 -46
0 -13 -6 -24 -13 -24 -17 0 -39 -65 -29 -82 6 -9 3 -9 -9 1 -17 14 -21 10 -18
-21 1 -10 -2 -18 -8 -18 -6 0 -8 -7 -5 -15 4 -9 0 -15 -9 -15 -9 0 -17 -13
-21 -34 -4 -19 -14 -37 -22 -40 -12 -4 -15 -15 -12 -37 4 -23 1 -29 -10 -24
-10 4 -13 0 -9 -15 3 -11 2 -18 -3 -15 -4 3 -11 -2 -14 -11 -4 -11 -2 -15 8
-11 7 3 24 -2 36 -10 21 -15 24 -15 41 8 9 13 16 26 13 30 -2 4 3 9 11 13 8 3
21 18 28 33 6 15 24 41 40 57 15 17 27 34 27 38 0 4 12 20 28 36 58 61 112
124 112 130 0 4 13 16 29 25 17 10 33 27 36 38 8 25 21 14 28 -21 4 -25 4 -25
12 -3 4 13 11 20 16 17 5 -3 9 0 9 5 0 6 5 11 11 11 5 0 7 -5 3 -12 -4 -7 -3
-8 4 -4 7 4 12 14 12 22 0 8 5 14 10 14 6 0 10 -4 10 -10 0 -5 5 -10 11 -10 5
0 8 3 6 8 -3 4 -1 16 4 27 8 19 8 19 15 -2 3 -13 11 -23 16 -23 5 0 6 5 2 12
-5 7 -2 9 9 5 10 -4 17 0 19 11 3 15 5 15 15 -3 17 -32 27 -89 14 -81 -6 4
-12 17 -12 29 -1 12 -5 1 -9 -26 -5 -26 -18 -67 -30 -91 -14 -29 -19 -53 -14
-70 4 -19 2 -28 -10 -32 -9 -3 -14 -10 -11 -14 3 -5 24 1 48 13 23 11 47 21
52 21 6 1 26 9 45 18 150 70 399 148 432 135 13 -5 -92 -57 -115 -57 -7 0 -45
-16 -84 -35 -39 -19 -73 -35 -76 -35 -6 0 -195 -87 -232 -107 -16 -9 -49 -34
-72 -55 -24 -21 -47 -38 -53 -38 -23 0 -49 -88 -52 -177 -2 -48 -7 -93 -11
-99 -8 -14 1 -24 24 -24 11 0 28 21 47 58 23 45 35 57 53 57 15 0 25 -7 27
-19 3 -12 0 -16 -8 -11 -7 4 -24 -7 -41 -26 -30 -34 -36 -49 -19 -49 6 0 10 4
10 10 0 6 9 6 24 0 13 -5 26 -7 28 -4 3 2 47 7 98 9 51 3 101 10 112 16 26 14
48 5 48 -20 0 -28 -13 -33 -89 -38 -73 -4 -101 -24 -101 -70 0 -33 -24 -25
-28 10 -3 20 -9 27 -26 27 -24 0 -56 -28 -56 -48 0 -6 -15 -18 -34 -27 -46
-22 -51 -41 -23 -84 22 -32 24 -46 23 -128 -1 -84 -3 -94 -24 -109 -12 -8 -33
-26 -45 -38 -13 -12 -56 -35 -97 -51 -229 -86 -375 -177 -416 -257 -28 -55
-29 -58 -9 -58 8 0 27 16 42 35 40 51 95 84 169 102 51 13 70 14 91 4 23 -10
25 -16 20 -52 -3 -22 -17 -55 -31 -74 -14 -18 -26 -37 -26 -41 0 -4 -18 -26
-40 -50 -22 -24 -40 -47 -40 -52 0 -5 -11 -14 -24 -20 -16 -7 -26 -22 -30 -48
-8 -38 -26 -64 -45 -64 -6 0 -11 5 -11 12 0 8 -3 8 -9 2 -12 -11 -14 -84 -5
-135 4 -23 1 -46 -7 -60 -17 -31 -39 -90 -39 -107 0 -11 -41 -70 -117 -170
-10 -13 -34 -41 -53 -61 -19 -21 -53 -59 -75 -85 -22 -26 -57 -57 -78 -67 -21
-11 -40 -26 -44 -34 -3 -8 -11 -15 -19 -15 -19 0 -51 -20 -83 -50 -35 -34
-114 -72 -142 -69 -13 1 -32 -1 -41 -5 -39 -14 -48 -15 -80 -6 -21 6 -36 6
-42 0 -6 -6 -19 -10 -31 -10 -11 0 -36 -10 -55 -21 -26 -16 -53 -22 -105 -23
-44 -1 -82 -8 -102 -19 -18 -9 -42 -17 -55 -17 -13 0 -40 -11 -60 -25 -20 -14
-44 -25 -53 -25 -20 0 -109 -27 -150 -45 -41 -18 -114 -42 -150 -49 -16 -4
-45 -14 -63 -24 -28 -15 -34 -15 -42 -2 -5 8 -12 11 -17 7 -4 -5 -1 -12 7 -17
12 -7 12 -12 2 -22 -10 -10 -16 -10 -30 0 -34 25 -44 24 -103 -7 -47 -25 -64
-29 -79 -21 -11 6 -39 12 -63 14 -48 4 -117 26 -117 37 0 4 -16 5 -35 2 -20
-3 -35 -1 -35 4 0 9 -46 22 -129 38 -14 3 -29 12 -34 20 -4 8 -12 13 -17 10
-14 -9 -93 16 -107 34 -7 8 -13 11 -13 6 0 -4 -8 -1 -17 7 -10 9 -28 19 -40
22 -13 4 -23 12 -23 17 0 5 -6 9 -14 9 -7 0 -25 9 -39 20 -14 11 -30 20 -37
20 -6 0 -23 11 -38 25 -15 14 -30 25 -33 25 -4 0 -36 16 -71 36 -34 20 -76 38
-93 40 -16 2 -31 8 -33 13 -2 6 -9 8 -17 5 -7 -3 -20 4 -28 16 -10 15 -16 18
-19 8 -4 -11 -8 -11 -20 0 -13 10 -17 10 -21 0 -3 -9 -10 -6 -22 10 -16 22
-18 22 -31 5 -9 -12 -13 -13 -14 -5 0 7 -4 11 -9 7 -5 -3 -16 3 -23 13 -31 44
-105 64 -145 39 -6 -4 -14 -1 -17 5 -4 10 -8 9 -18 -2 -19 -21 -42 -25 -34 -5
3 9 2 13 -4 10 -6 -3 -10 -12 -10 -20 0 -8 -5 -17 -12 -21 -7 -4 -8 -3 -4 4 4
7 2 12 -4 12 -6 0 -13 -6 -16 -14 -10 -25 -32 -27 -27 -3 5 21 5 21 -12 -2
-14 -18 -19 -20 -26 -10 -6 10 -9 11 -9 2 0 -7 -7 -13 -15 -13 -8 0 -15 4 -15
9 0 5 -15 6 -32 2 -18 -4 -44 -6 -58 -4 -14 2 -43 5 -65 7 -22 2 -40 5 -40 6
0 7 -113 5 -129 -3 -10 -5 -21 -5 -25 -1 -3 5 -42 10 -85 12 -44 1 -83 6 -86
11 -3 6 -18 15 -34 21 -23 8 -48 6 -129 -15 -55 -14 -120 -25 -145 -25 -26 0
-58 -8 -76 -19 -17 -10 -47 -22 -66 -26 -19 -4 -69 -24 -110 -45 -41 -20 -99
-45 -128 -55 -29 -9 -56 -23 -58 -30 -3 -7 0 -31 6 -54 8 -29 17 -42 33 -46
74 -16 162 -26 298 -35 85 -5 210 -14 279 -20 303 -25 491 -40 570 -45 249
-17 832 -78 960 -100 47 -9 139 -24 205 -34 66 -11 197 -38 290 -61 94 -22
251 -61 350 -85 99 -24 209 -49 245 -55 36 -6 100 -20 142 -31 89 -22 207 -45
288 -54 30 -4 93 -17 140 -30 47 -13 191 -40 320 -60 129 -20 291 -48 360 -61
162 -31 219 -41 310 -55 41 -6 95 -15 120 -20 25 -4 81 -13 125 -19 94 -12
194 -38 215 -55 8 -7 34 -16 58 -20 68 -11 55 -26 -35 -40 -46 -7 -56 -19 -23
-28 28 -7 25 -27 -5 -27 -14 0 -25 -4 -25 -10 0 -5 -7 -10 -15 -10 -8 0 -15
-9 -15 -20 0 -11 6 -20 14 -20 28 0 76 -35 76 -55 0 -19 -7 -21 -82 -22 -131
-2 -128 -1 -128 -23 0 -20 7 -20 600 -20 l600 0 0 5120 0 5120 -690 0 c-664 0
-690 -1 -690 -18 0 -11 9 -27 20 -37 11 -10 20 -23 20 -28 0 -6 12 -26 28 -46
37 -48 44 -62 96 -168 25 -51 56 -104 70 -118 14 -14 26 -30 26 -35 0 -6 5
-10 10 -10 16 0 118 -84 119 -97 2 -21 24 -63 33 -63 18 0 38 -29 38 -54 0
-16 6 -26 15 -26 8 0 15 -7 15 -15 0 -9 7 -18 15 -21 8 -4 15 -15 15 -25 0
-10 4 -19 9 -19 5 0 12 -16 15 -35 4 -19 18 -43 31 -54 14 -10 25 -29 25 -40
0 -12 7 -35 15 -50 8 -16 17 -48 21 -72 4 -24 13 -55 20 -69 7 -14 17 -48 22
-75 6 -28 15 -63 20 -80 6 -16 20 -59 33 -95 12 -36 28 -101 35 -145 17 -108
40 -217 63 -295 24 -82 40 -171 51 -280 4 -47 13 -114 19 -150 6 -36 11 -100
11 -142 0 -42 4 -87 9 -100 5 -13 14 -63 21 -113 7 -49 16 -119 21 -155 4 -36
11 -139 14 -230 3 -91 11 -199 16 -240 6 -41 15 -149 19 -240 17 -343 21 -395
29 -400 10 -6 23 -240 23 -421 0 -73 4 -141 9 -151 5 -10 12 -60 14 -112 l5
-94 -67 28 c-38 15 -97 37 -133 49 -36 12 -84 31 -107 41 -24 11 -45 20 -49
20 -3 0 -25 13 -49 30 -24 16 -54 32 -67 34 -13 3 -23 5 -23 6 0 1 -38 4 -84
6 -65 3 -97 -1 -140 -16 -331 -114 -322 -113 -419 -65 -187 90 -368 245 -475
408 -116 175 -199 365 -210 480 l-6 58 43 -2 c25 -2 58 4 79 15 21 9 42 14 47
11 6 -3 10 1 10 9 0 9 10 17 23 18 12 1 29 2 38 3 9 0 24 9 34 19 11 11 20 14
24 7 9 -13 22 -3 51 39 13 19 29 40 36 45 6 6 21 36 34 68 12 31 26 57 30 57
4 0 13 21 20 48 7 26 17 53 23 59 5 7 6 28 3 47 -5 25 -2 39 10 50 12 13 15
28 10 69 -4 28 -9 82 -12 120 -5 58 -4 66 10 61 14 -5 15 5 11 81 -3 48 -9 95
-14 104 -26 49 -1 339 29 349 6 2 10 16 10 30 0 15 7 36 15 46 8 10 22 42 31
70 9 28 22 56 29 61 6 6 15 28 19 50 4 22 12 54 18 70 13 38 -12 234 -34 261
-4 7 -6 31 -3 55 3 24 8 67 10 94 3 28 11 75 18 105 10 45 17 56 35 58 17 3
21 8 17 22 -3 10 -2 21 4 24 5 4 6 21 1 43 -5 20 -7 40 -4 45 3 4 -3 19 -12
33 -15 23 -15 25 0 25 20 0 21 14 2 30 -8 6 -13 17 -10 25 3 7 1 16 -5 20 -6
3 -11 15 -11 25 0 13 -27 39 -80 76 -44 30 -78 59 -75 64 8 13 -6 40 -21 40
-16 0 -48 65 -39 80 3 5 -1 17 -10 26 -19 20 -16 59 5 59 9 0 17 -13 20 -30 6
-29 6 -30 14 -6 11 32 25 9 27 -44 l1 -40 9 33 c15 50 -5 236 -31 297 -40 94
-74 156 -108 196 -48 56 -60 105 -54 222 l5 97 -1870 0 -1870 0 -10 -58z m802
-94 c-7 -41 -6 -42 9 -23 14 18 14 16 0 -20 -9 -22 -27 -51 -40 -65 -13 -14
-31 -34 -39 -45 -12 -17 -12 -11 1 45 8 36 18 75 23 87 10 21 42 63 49 63 2 0
1 -19 -3 -42z m-825 -8 c-6 -12 -14 -20 -17 -17 -2 3 1 14 8 26 17 26 24 19 9
-9z m-35 -9 c-3 -6 -11 -11 -17 -11 -6 0 -6 6 2 15 14 17 26 13 15 -4z m-44
-48 c-8 -15 -10 -15 -11 -2 0 17 10 32 18 25 2 -3 -1 -13 -7 -23z m53 -17 c-3
-21 -8 -35 -11 -32 -2 2 -1 20 3 40 3 21 8 35 11 32 2 -2 1 -20 -3 -40z m223
22 c-3 -8 -6 -5 -6 6 -1 11 2 17 5 13 3 -3 4 -12 1 -19z m-246 -11 c-10 -9
-11 -8 -5 6 3 10 9 15 12 12 3 -3 0 -11 -7 -18z m1090 -46 c-6 -11 -11 -29
-11 -40 0 -11 -11 -32 -25 -47 -17 -18 -25 -22 -25 -12 0 21 64 142 68 130 2
-6 -1 -20 -7 -31z m-1104 -3 c-3 -7 -5 -2 -5 12 0 14 2 19 5 13 2 -7 2 -19 0
-25z m23 -43 c0 -8 -4 -15 -10 -15 -5 0 -7 7 -4 15 4 8 8 15 10 15 2 0 4 -7 4
-15z m998 -51 c-12 -27 -25 -58 -29 -69 -6 -16 -7 -13 -8 12 -1 18 5 36 13 40
7 4 19 26 26 48 7 22 15 35 17 29 2 -6 -6 -33 -19 -60z m-1040 33 c-9 -7 -20
-26 -24 -41 -5 -19 -9 -24 -15 -15 -9 15 26 69 44 69 7 0 5 -6 -5 -13z m-40
-98 c-3 -8 -7 -3 -11 10 -4 17 -3 21 5 13 5 -5 8 -16 6 -23z m309 -11 c-3 -8
-6 -5 -6 6 -1 11 2 17 5 13 3 -3 4 -12 1 -19z m-120 -35 c-3 -10 -5 -4 -5 12
0 17 2 24 5 18 2 -7 2 -21 0 -30z m-210 -5 c-3 -7 -5 -2 -5 12 0 14 2 19 5 13
2 -7 2 -19 0 -25z m-60 -40 c-3 -7 -5 -2 -5 12 0 14 2 19 5 13 2 -7 2 -19 0
-25z m260 -27 c-3 -16 -9 -42 -13 -57 -5 -25 -1 -22 26 18 27 41 67 83 46 50
-4 -7 -1 -12 6 -13 10 0 10 -2 1 -6 -7 -2 -13 -21 -13 -41 0 -29 3 -34 11 -22
9 12 10 12 5 -3 -3 -10 -6 -21 -6 -23 0 -3 -5 -2 -12 2 -6 4 -8 3 -5 -3 4 -6
-1 -32 -10 -59 -13 -38 -18 -45 -26 -33 -8 13 -15 10 -44 -20 l-35 -36 7 30
c6 29 6 29 -14 11 -26 -24 -28 -12 -2 15 22 24 43 80 61 162 13 57 28 82 17
28z m-300 -13 c-3 -7 -5 -2 -5 12 0 14 2 19 5 13 2 -7 2 -19 0 -25z m-104 15
c-7 -2 -21 -2 -30 0 -10 3 -4 5 12 5 17 0 24 -2 18 -5z m324 -40 c-3 -10 -5
-2 -5 17 0 19 2 27 5 18 2 -10 2 -26 0 -35z m-327 -43 c0 -5 -5 -10 -11 -10
-5 0 -7 5 -4 10 3 6 8 10 11 10 2 0 4 -4 4 -10z m301 -44 c-14 -36 -22 -33 -9
5 6 16 12 28 14 26 3 -2 0 -16 -5 -31z m330 -19 l-24 -22 19 27 c10 14 21 24
23 22 3 -3 -6 -15 -18 -27z m-21 -30 c0 -2 -10 -12 -22 -23 l-23 -19 19 23
c18 21 26 27 26 19z m-324 -75 c-17 -16 -18 -16 -5 5 7 12 15 20 18 17 3 -2
-3 -12 -13 -22z m235 0 c-12 -22 -41 -48 -41 -36 0 8 40 54 47 54 2 0 -1 -8
-6 -18z m-793 -67 c-3 -3 -20 -10 -38 -15 -19 -5 -29 -6 -24 -1 12 12 74 27
62 16z m682 1 c0 -2 -7 -7 -16 -10 -8 -3 -12 -2 -9 4 6 10 25 14 25 6z m497
-138 c-3 -8 -6 -5 -6 6 -1 11 2 17 5 13 3 -3 4 -12 1 -19z m-1227 2 c0 -5 -5
-10 -11 -10 -5 0 -7 5 -4 10 3 6 8 10 11 10 2 0 4 -4 4 -10z m1268 -110 c-1
-32 -6 -56 -9 -52 -7 7 0 112 8 112 2 0 3 -27 1 -60z m-1238 -84 c0 -2 -7 -7
-16 -10 -8 -3 -12 -2 -9 4 6 10 25 14 25 6z m-74 -158 c-9 -12 -16 -17 -16
-10 0 19 4 27 13 25 4 -2 7 2 7 9 0 6 3 9 6 5 3 -3 -1 -16 -10 -29z m1169 -25
c-37 -82 -60 -116 -94 -136 -17 -10 -31 -16 -31 -13 0 13 73 127 100 156 16
17 30 36 30 41 0 5 4 9 10 9 5 0 -1 -25 -15 -57z m-1147 7 c-7 -11 -19 -22
-28 -25 -8 -4 -4 5 9 19 29 31 36 33 19 6z m92 -34 c0 -2 -8 -10 -17 -17 -16
-13 -17 -12 -4 4 13 16 21 21 21 13z m-118 -48 c-7 -7 -12 -8 -12 -2 0 14 12
26 19 19 2 -3 -1 -11 -7 -17z m1214 -32 c23 16 24 16 18 -2 -7 -19 -77 -88
-125 -124 l-27 -20 8 35 c8 37 17 51 59 98 21 23 26 25 33 12 8 -13 12 -13 34
1z m-1066 -30 c0 -3 -4 -8 -10 -11 -5 -3 -10 -1 -10 4 0 6 5 11 10 11 6 0 10
-2 10 -4z m-153 -88 c-3 -8 -6 -5 -6 6 -1 11 2 17 5 13 3 -3 4 -12 1 -19z
m106 2 c-3 -12 -8 -19 -11 -16 -5 6 5 36 12 36 2 0 2 -9 -1 -20z m-25 -75 c-3
-3 -9 2 -12 12 -6 14 -5 15 5 6 7 -7 10 -15 7 -18z m-58 -20 c-7 -9 -15 -13
-17 -11 -6 6 20 36 26 30 2 -2 -2 -10 -9 -19z m1150 -109 c0 -2 -8 -10 -17
-17 -16 -13 -17 -12 -4 4 13 16 21 21 21 13z m-1500 -116 c0 -5 -10 -10 -22
-9 -22 0 -22 1 -3 9 11 5 21 9 23 9 1 1 2 -3 2 -9z m65 -60 c-3 -5 -10 -10
-16 -10 -5 0 -9 5 -9 10 0 6 7 10 16 10 8 0 12 -4 9 -10z m-50 -10 c-27 -12
-43 -12 -25 0 8 5 22 9 30 9 10 0 8 -3 -5 -9z m2 -36 c-3 -3 -12 -4 -19 -1 -8
3 -5 6 6 6 11 1 17 -2 13 -5z m-34 -21 c-7 -2 -19 -2 -25 0 -7 3 -2 5 12 5 14
0 19 -2 13 -5z m72 -23 c-3 -5 -12 -10 -18 -10 -7 0 -6 4 3 10 19 12 23 12 15
0z m-45 -20 c0 -5 -9 -10 -20 -10 -11 0 -20 5 -20 10 0 6 9 10 20 10 11 0 20
-4 20 -10z m-47 -12 c15 -12 15 -15 -3 -38 l-19 -25 3 30 c2 20 -2 32 -13 37
-14 6 -14 7 0 7 8 1 23 -5 32 -11z m187 -42 c0 -3 -4 -8 -10 -11 -5 -3 -10 -1
-10 4 0 6 5 11 10 11 6 0 10 -2 10 -4z m55 -35 c-3 -6 -11 -11 -17 -11 -6 0
-6 6 2 15 14 17 26 13 15 -4z m-109 -19 c-18 -16 -18 -16 -6 6 6 13 14 21 18
18 3 -4 -2 -14 -12 -24z m244 -5 c0 -2 -15 -16 -32 -33 l-33 -29 29 33 c28 30
36 37 36 29z m-200 -51 c0 -2 -8 -10 -17 -17 -16 -13 -17 -12 -4 4 13 16 21
21 21 13z m153 -71 c-3 -9 -8 -14 -10 -11 -3 3 -2 9 2 15 9 16 15 13 8 -4z
m128 -8 c-10 -9 -11 -8 -5 6 3 10 9 15 12 12 3 -3 0 -11 -7 -18z m-271 -27 c0
-5 -8 -10 -17 -10 -15 0 -16 2 -3 10 19 12 20 12 20 0z m210 -210 c0 -5 -2
-10 -4 -10 -3 0 -8 5 -11 10 -3 6 -1 10 4 10 6 0 11 -4 11 -10z m380 -90 c0
-5 -4 -10 -9 -10 -6 0 -13 5 -16 10 -3 6 1 10 9 10 9 0 16 -4 16 -10z m1088
-799 l47 -7 -47 -8 c-30 -4 -55 -3 -68 4 -27 14 -26 33 1 25 11 -4 42 -10 67
-14z m8 -84 c4 -4 16 -7 26 -7 10 0 18 -4 18 -9 0 -11 -59 1 -86 18 -17 10
-16 11 8 8 15 -2 30 -6 34 -10z m-103 -844 c47 -17 62 -42 35 -59 -7 -5 -9 -2
-5 8 7 20 -51 47 -124 58 l-54 8 50 1 c28 1 71 -7 98 -16z m3621 -1164 c-3 -5
-10 -7 -15 -3 -5 3 -7 10 -3 15 3 5 10 7 15 3 5 -3 7 -10 3 -15z m-414 -19 c8
-15 5 -30 -11 -65 -12 -25 -24 -45 -28 -45 -3 0 -6 -18 -5 -40 1 -40 -10 -43
-19 -5 -3 11 -4 4 -3 -17 0 -20 4 -34 8 -32 4 3 5 -1 2 -9 -3 -8 2 -20 11 -27
8 -7 15 -17 15 -23 0 -6 -7 -1 -16 11 -8 12 -22 22 -30 22 -13 0 -12 -4 1 -30
9 -16 11 -30 6 -30 -5 0 -12 8 -14 18 -4 13 -5 12 -6 -5 0 -12 4 -25 9 -28 6
-3 10 -11 10 -18 0 -6 -7 -2 -16 9 -15 18 -15 18 -11 -6 3 -14 1 -34 -4 -45
-6 -14 -8 -3 -6 38 2 32 0 52 -4 45 -6 -9 -11 -5 -19 12 -11 27 -11 30 5 -62
3 -16 1 -28 -4 -28 -5 0 -12 10 -14 23 -3 15 -5 11 -6 -12 -1 -47 -10 -34 -20
30 -8 48 -7 51 6 33 15 -18 15 -18 9 7 -4 18 0 34 14 52 11 14 20 30 20 35 0
6 12 38 27 71 23 52 30 60 48 55 20 -6 20 -6 0 9 -16 13 -18 18 -7 29 11 11
14 10 22 -2 6 -9 10 -10 10 -3 0 6 3 20 7 30 6 16 5 16 -10 4 -10 -7 -17 -9
-17 -3 0 9 6 14 27 21 1 1 7 -8 13 -19z m-375 -20 c3 -5 1 -10 -4 -10 -6 0
-11 5 -11 10 0 6 2 10 4 10 3 0 8 -4 11 -10z m615 -12 c0 -18 -2 -20 -9 -8 -6
8 -7 18 -5 22 9 14 14 9 14 -14z m127 0 c-3 -8 -6 -5 -6 6 -1 11 2 17 5 13 3
-3 4 -12 1 -19z m-277 -9 c0 -5 -4 -7 -10 -4 -5 3 -10 1 -10 -6 0 -7 -3 -10
-6 -6 -8 7 4 27 17 27 5 0 9 -5 9 -11z m125 -42 c-8 -12 -14 -26 -14 -30 1 -5
-3 -12 -7 -15 -4 -4 -4 4 0 18 6 21 9 32 15 58 1 2 5 0 11 -3 6 -4 4 -14 -5
-28z m-28 17 c-3 -3 -12 -4 -19 -1 -8 3 -5 6 6 6 11 1 17 -2 13 -5z m-587 -28
c0 -8 -6 -16 -14 -19 -8 -3 -18 -26 -22 -52 -3 -25 -9 -43 -12 -41 -3 3 -17
-31 -32 -77 -32 -96 -54 -140 -65 -129 -4 4 -5 -8 -2 -25 4 -18 3 -33 -2 -33
-5 0 -12 -17 -16 -37 -4 -25 -9 -32 -15 -23 -6 9 -11 2 -15 -24 -6 -28 -11
-36 -23 -31 -12 4 -13 3 -2 -10 10 -13 10 -19 -4 -33 -9 -10 -16 -26 -16 -36
0 -9 -7 -19 -15 -22 -10 -4 -13 -14 -8 -32 4 -15 2 -23 -4 -19 -6 4 -16 -12
-23 -33 -7 -22 -17 -40 -22 -40 -4 0 -8 -13 -8 -29 0 -17 -4 -33 -10 -36 -5
-3 -10 -18 -10 -32 0 -18 -4 -24 -15 -20 -11 5 -13 0 -11 -21 2 -15 1 -21 -1
-14 -2 6 -9 12 -13 12 -6 0 -6 -10 0 -24 7 -19 5 -23 -8 -22 -9 0 -16 -5 -14
-13 1 -7 -2 -19 -9 -27 -6 -7 -8 -18 -4 -24 3 -5 1 -10 -5 -10 -6 0 -9 -4 -5
-9 3 -5 0 -13 -6 -16 -5 -4 -8 -13 -5 -21 3 -8 1 -14 -4 -14 -6 0 -9 -4 -7 -8
1 -4 -8 -28 -20 -52 -32 -66 -76 -164 -79 -175 -1 -5 -8 -23 -15 -40 -7 -16
-12 -33 -11 -37 1 -5 -3 -8 -8 -8 -12 0 -12 -2 0 39 7 24 6 31 -1 24 -5 -5
-14 -39 -18 -74 -5 -36 -9 -51 -11 -34 -1 17 -4 24 -7 18 -7 -19 -22 -15 -18
5 2 9 4 21 4 25 1 5 5 5 11 2 5 -3 7 0 4 8 -7 18 59 215 115 342 17 39 20 54
11 60 -6 4 -10 14 -10 23 0 13 2 13 14 -3 13 -18 14 -18 19 1 3 10 6 46 7 79
1 69 3 86 11 100 4 6 10 27 13 48 4 22 22 69 41 105 18 37 36 76 39 87 6 16 9
17 17 5 8 -11 9 -8 4 13 -4 19 -2 26 5 22 6 -4 10 5 10 22 0 15 4 23 8 17 7
-11 22 2 56 51 20 27 28 15 11 -15 -8 -14 -22 -42 -31 -63 -10 -24 -22 -36
-30 -33 -10 4 -13 -4 -12 -27 0 -18 -2 -43 -6 -57 l-6 -25 12 25 c6 14 21 45
33 70 17 35 146 287 215 419 44 83 70 112 70 77z m165 -43 c-9 -37 -18 -20 -9
19 4 18 9 27 11 20 3 -7 2 -24 -2 -39z m-308 15 c-3 -8 -6 -5 -6 6 -1 11 2 17
5 13 3 -3 4 -12 1 -19z m-18 -34 c-6 -7 -15 -11 -20 -8 -5 3 -3 11 4 18 16 18
31 8 16 -10z m351 -14 c0 -5 -2 -10 -4 -10 -3 0 -8 5 -11 10 -3 6 -1 10 4 10
6 0 11 -4 11 -10z m757 -12 c-3 -8 -6 -5 -6 6 -1 11 2 17 5 13 3 -3 4 -12 1
-19z m-1127 -8 c0 -19 -18 -19 -23 -1 -3 14 -1 18 9 14 8 -3 14 -9 14 -13z
m-30 -25 c0 -17 -16 -35 -31 -35 -21 0 -22 2 -14 22 5 12 45 24 45 13z m1090
-21 c0 -8 -5 -12 -10 -9 -6 4 -8 11 -5 16 9 14 15 11 15 -7z m-1132 -32 c2 -7
-3 -12 -12 -12 -9 0 -16 -6 -16 -13 0 -7 -8 -22 -18 -33 -10 -10 -24 -28 -30
-39 -9 -15 -11 -16 -12 -4 0 8 9 25 20 37 11 11 17 28 14 36 -4 11 0 16 10 16
9 0 16 7 16 16 0 17 22 14 28 -4z m1126 0 c2 -4 0 -14 -6 -22 -8 -12 -9 -11
-4 3 4 12 2 17 -6 14 -7 -2 -12 -10 -10 -16 1 -7 -2 -10 -7 -6 -6 3 -8 12 -4
20 6 16 29 20 37 7z m-673 -81 c-8 -14 -8 -28 0 -48 6 -17 6 -24 0 -18 -16 16
-24 62 -12 69 6 4 12 22 12 39 2 30 2 30 6 5 2 -15 -1 -36 -6 -47z m724 1 c8
13 10 6 11 -30 0 -43 -1 -45 -10 -19 -11 29 -30 38 -22 10 20 -72 17 -112 -5
-56 -6 16 -7 54 -2 97 7 69 8 70 13 26 4 -36 7 -42 15 -28z m13 37 c-3 -8 -7
-3 -11 10 -4 17 -3 21 5 13 5 -5 8 -16 6 -23z m185 1 c-5 -18 -14 -24 -34 -22
-3 1 -12 -10 -19 -23 -7 -14 -17 -25 -22 -25 -4 0 -8 -6 -8 -14 0 -8 -4 -18
-10 -21 -6 -4 -10 7 -10 25 0 18 4 29 10 25 6 -3 10 -2 10 4 0 7 73 67 87 71
0 0 -1 -9 -4 -20z m-235 -15 c0 -14 -4 -25 -9 -25 -10 0 -12 34 -2 43 10 10
11 9 11 -18z m-41 -7 c-3 -8 -6 -5 -6 6 -1 11 2 17 5 13 3 -3 4 -12 1 -19z
m-526 -35 c-12 -20 -14 -14 -5 12 4 9 9 14 11 11 3 -2 0 -13 -6 -23z m-96 -3
c3 -5 1 -10 -4 -10 -6 0 -11 5 -11 10 0 6 2 10 4 10 3 0 8 -4 11 -10z m735 0
c0 -5 -2 -10 -4 -10 -3 0 -8 5 -11 10 -3 6 -1 10 4 10 6 0 11 -4 11 -10z
m-697 -30 c-3 -12 -8 -19 -11 -16 -5 6 5 36 12 36 2 0 2 -9 -1 -20z m-613 1
c0 -5 -7 -14 -15 -21 -13 -10 -15 -9 -15 9 0 12 6 21 15 21 8 0 15 -4 15 -9z
m597 -91 c-3 -20 -4 -18 -6 8 0 18 -7 35 -15 38 -8 3 -11 15 -8 32 5 25 6 25
19 -13 8 -22 12 -51 10 -65z m460 85 c0 -8 -4 -15 -9 -15 -10 0 -11 14 -1 23
9 10 10 9 10 -8z m-440 -47 c-3 -8 -6 -5 -6 6 -1 11 2 17 5 13 3 -3 4 -12 1
-19z m0 -120 c-3 -8 -6 -5 -6 6 -1 11 2 17 5 13 3 -3 4 -12 1 -19z m-17 -9 c0
-6 -4 -7 -10 -4 -5 3 -10 11 -10 16 0 6 5 7 10 4 6 -3 10 -11 10 -16z m43 -39
c-7 -8 -22 24 -16 34 4 5 10 1 13 -10 4 -10 6 -21 3 -24z m-42 -3 c-10 -9 -11
-8 -5 6 3 10 9 15 12 12 3 -3 0 -11 -7 -18z m-414 -29 c-3 -8 -6 -5 -6 6 -1
11 2 17 5 13 3 -3 4 -12 1 -19z m-50 -10 c-3 -8 -6 -5 -6 6 -1 11 2 17 5 13 3
-3 4 -12 1 -19z m433 18 c0 -3 -4 -8 -10 -11 -5 -3 -10 -1 -10 4 0 6 5 11 10
11 6 0 10 -2 10 -4z m30 -12 c0 -8 -4 -12 -10 -9 -5 3 -10 10 -10 16 0 5 5 9
10 9 6 0 10 -7 10 -16z m8 -56 c-5 -23 -12 -45 -14 -48 -6 -6 6 70 13 83 10
17 10 4 1 -35z m-60 -8 c-7 -11 -16 -20 -20 -20 -11 0 -10 9 5 25 18 21 29 18
15 -5z m92 5 c0 -8 -4 -15 -10 -15 -5 0 -7 7 -4 15 4 8 8 15 10 15 2 0 4 -7 4
-15z m-523 -27 c-3 -7 -5 -2 -5 12 0 14 2 19 5 13 2 -7 2 -19 0 -25z m1461
-16 c3 -27 3 -27 -16 -7 -14 14 -17 24 -9 33 13 16 20 8 25 -26z m-999 -16 c1
-6 -5 -1 -13 9 -8 11 -12 24 -8 29 5 9 20 -17 21 -38z m-6 -38 c4 -10 3 -18
-2 -18 -5 0 -11 8 -14 18 -2 9 -8 26 -12 37 l-7 20 14 -20 c8 -11 18 -28 21
-37z m-513 -5 c-11 -17 -11 -17 -6 0 3 10 6 24 7 30 0 9 2 9 5 0 3 -7 0 -20
-6 -30z m537 5 c-3 -8 -6 -5 -6 6 -1 11 2 17 5 13 3 -3 4 -12 1 -19z m-490
-20 c-3 -8 -6 -5 -6 6 -1 11 2 17 5 13 3 -3 4 -12 1 -19z m-52 -18 c3 -5 1
-10 -4 -10 -6 0 -11 5 -11 10 0 6 2 10 4 10 3 0 8 -4 11 -10z m509 -46 c5 -14
4 -15 -9 -4 -17 14 -19 20 -6 20 5 0 12 -7 15 -16z m-47 -16 c-3 -8 -6 -5 -6
6 -1 11 2 17 5 13 3 -3 4 -12 1 -19z m-23 -36 c2 -25 -2 -38 -9 -36 -6 3 -9
21 -7 45 5 49 14 44 16 -9z m28 -11 c2 -17 1 -28 -4 -25 -8 5 -12 54 -4 54 2
0 6 -13 8 -29z m-47 -51 c3 -5 1 -10 -4 -10 -6 0 -11 5 -11 10 0 6 2 10 4 10
3 0 8 -4 11 -10z m22 -12 c-3 -8 -6 -5 -6 6 -1 11 2 17 5 13 3 -3 4 -12 1 -19z
m473 -69 c0 -6 -4 -7 -10 -4 -5 3 -10 11 -10 16 0 6 5 7 10 4 6 -3 10 -11 10
-16z m-513 -26 c-3 -10 -5 -4 -5 12 0 17 2 24 5 18 2 -7 2 -21 0 -30z m10 -53
c2 -18 0 -18 -13 -6 -17 18 -18 37 -1 30 7 -2 13 -13 14 -24z m510 -2 c-3 -8
-6 -5 -6 6 -1 11 2 17 5 13 3 -3 4 -12 1 -19z m-561 -296 c-19 -20 -21 -4 -3
35 12 27 12 27 15 4 2 -13 -3 -31 -12 -39z m-719 -104 c-3 -8 -6 -5 -6 6 -1
11 2 17 5 13 3 -3 4 -12 1 -19z m-2 -38 c3 -5 1 -10 -4 -10 -6 0 -11 5 -11 10
0 6 2 10 4 10 3 0 8 -4 11 -10z m-25 -20 c0 -5 -2 -10 -4 -10 -3 0 -8 5 -11
10 -3 6 -1 10 4 10 6 0 11 -4 11 -10z m1874 -25 c3 -8 1 -15 -4 -15 -6 0 -10
7 -10 15 0 8 2 15 4 15 2 0 6 -7 10 -15z m-1120 -21 c3 -8 2 -12 -4 -9 -6 3
-10 10 -10 16 0 14 7 11 14 -7z m-774 -23 c0 -6 -4 -13 -10 -16 -5 -3 -10 1
-10 9 0 9 5 16 10 16 6 0 10 -4 10 -9z m737 -80 c-2 -13 -5 -11 -15 6 -7 12
-9 29 -5 39 5 15 8 14 15 -6 5 -13 7 -31 5 -39z m-20 -43 c-3 -7 -5 -2 -5 12
0 14 2 19 5 13 2 -7 2 -19 0 -25z m9 -122 c-1 -18 -4 -22 -13 -14 -15 12 -17
32 -3 23 6 -3 10 -1 10 4 0 6 2 11 4 11 2 0 3 -11 2 -24z m-21 -185 c3 -5 1
-12 -5 -16 -5 -3 -10 1 -10 9 0 18 6 21 15 7z m-3 -80 c-9 -25 -32 -57 -32
-44 0 7 5 15 10 18 6 3 10 21 10 38 0 23 3 28 9 18 5 -8 7 -21 3 -30z m13 -41
c3 -5 1 -10 -4 -10 -6 0 -11 5 -11 10 0 6 2 10 4 10 3 0 8 -4 11 -10z m-931
-255 c-4 -8 -8 -15 -10 -15 -2 0 -4 7 -4 15 0 8 4 15 10 15 5 0 7 -7 4 -15z
m-67 -67 c-3 -8 -6 -5 -6 6 -1 11 2 17 5 13 3 -3 4 -12 1 -19z m-2457 -888 c0
-5 -21 -10 -47 -10 -35 0 -44 3 -33 10 20 13 80 13 80 0z m-28 -89 c81 -4 151
-10 155 -14 10 -11 -150 -8 -246 3 -47 6 -147 15 -221 20 l-135 9 150 -5 c83
-3 216 -9 297 -13z m1668 -85 c0 -3 -4 -8 -10 -11 -5 -3 -10 -1 -10 4 0 6 5
11 10 11 6 0 10 -2 10 -4z m2890 -906 c0 -5 -13 -10 -30 -10 -16 0 -30 5 -30
10 0 6 14 10 30 10 17 0 30 -4 30 -10z"/>
<path d="M4756 9555 c-3 -9 -6 -24 -5 -33 0 -9 5 -4 10 12 9 32 6 48 -5 21z"/>
<path d="M4696 9526 c-9 -14 -12 -27 -7 -30 5 -3 14 8 20 24 12 36 9 38 -13 6z"/>
<path d="M8465 4480 c-3 -5 -1 -10 4 -10 6 0 11 5 11 10 0 6 -2 10 -4 10 -3 0
-8 -4 -11 -10z"/>
<path d="M8461 4424 c0 -11 3 -14 6 -6 3 7 2 16 -1 19 -3 4 -6 -2 -5 -13z"/>
<path d="M7810 4025 c0 -5 5 -17 10 -25 5 -8 10 -10 10 -5 0 6 -5 17 -10 25
-5 8 -10 11 -10 5z"/>
<path d="M7826 3955 c-9 -26 -7 -32 5 -12 6 10 9 21 6 23 -2 3 -7 -2 -11 -11z"/>
<path d="M7780 3936 c0 -8 4 -17 10 -21 5 -3 7 -12 3 -20 -8 -23 5 -18 18 6 8
15 8 19 0 15 -6 -4 -11 -1 -11 8 0 8 -4 18 -10 21 -5 3 -10 -1 -10 -9z"/>
<path d="M7726 3743 c-6 -14 -5 -15 5 -6 7 7 10 15 7 18 -3 3 -9 -2 -12 -12z"/>
<path d="M4275 10210 c-3 -6 1 -7 9 -4 18 7 21 14 7 14 -6 0 -13 -4 -16 -10z"/>
<path d="M4206 10144 c-9 -8 -16 -20 -16 -25 0 -12 37 -6 52 9 7 7 18 12 24
12 7 0 16 5 19 10 10 17 -62 11 -79 -6z"/>
<path d="M4176 10083 c-6 -14 -5 -15 5 -6 7 7 10 15 7 18 -3 3 -9 -2 -12 -12z"/>
<path d="M4516 10025 c-9 -24 -7 -37 4 -30 6 3 10 2 10 -4 0 -5 -4 -12 -9 -15
-12 -7 -8 -81 4 -81 12 0 17 113 6 133 -7 12 -9 11 -15 -3z"/>
<path d="M4557 10034 c-4 -4 -7 -14 -7 -23 0 -11 3 -12 11 -4 6 6 10 16 7 23
-2 6 -7 8 -11 4z"/>
<path d="M4480 9995 c-7 -9 -10 -18 -6 -22 3 -3 6 0 7 8 0 8 4 6 9 -6 8 -18 9
-17 9 8 1 31 -2 33 -19 12z"/>
<path d="M4470 9909 c-11 -19 -7 -39 5 -27 7 7 15 48 10 48 -2 0 -9 -9 -15
-21z"/>
<path d="M226 9871 c15 -16 135 -43 208 -47 39 -3 68 -2 65 1 -9 8 -225 55
-255 55 -17 0 -24 -4 -18 -9z"/>
<path d="M4477 9853 c-12 -12 -7 -22 8 -17 8 4 15 10 15 15 0 11 -14 12 -23 2z"/>
<path d="M3951 9787 c-15 -15 -14 -47 2 -47 20 0 40 47 23 53 -8 3 -19 0 -25
-6z m11 -19 c-7 -7 -12 -8 -12 -2 0 14 12 26 19 19 2 -3 -1 -11 -7 -17z"/>
<path d="M4405 9790 c3 -5 2 -10 -4 -10 -6 0 -8 -6 -5 -13 9 -24 31 -15 26 10
-2 13 -9 23 -14 23 -5 0 -6 -4 -3 -10z"/>
<path d="M268 9303 c6 -2 18 -2 25 0 6 3 1 5 -13 5 -14 0 -19 -2 -12 -5z"/>
<path d="M311 9295 c8 -8 148 -35 181 -35 46 0 28 10 -44 26 -61 13 -146 19
-137 9z"/>
<path d="M3918 9106 c-23 -17 -23 -22 0 -22 10 0 19 8 19 18 2 21 3 21 -19 4z"/>
<path d="M3906 8853 c-6 -14 -5 -15 5 -6 7 7 10 15 7 18 -3 3 -9 -2 -12 -12z"/>
<path d="M3946 8751 c-3 -5 1 -11 9 -14 9 -4 12 -1 8 9 -6 16 -10 17 -17 5z"/>
<path d="M3901 8653 c-1 -7 -8 -10 -16 -7 -9 4 -15 0 -15 -9 0 -11 6 -13 22
-9 14 3 19 2 14 -6 -4 -7 -2 -12 3 -12 13 0 13 7 1 35 -5 11 -9 15 -9 8z"/>
<path d="M3831 8594 c0 -11 3 -14 6 -6 3 7 2 16 -1 19 -3 4 -6 -2 -5 -13z"/>
<path d="M3877 8593 c-13 -12 -7 -22 8 -16 9 3 22 -2 30 -13 7 -11 17 -15 22
-11 4 5 -3 17 -17 27 -27 21 -33 23 -43 13z"/>
<path d="M3885 8550 c-3 -5 1 -10 9 -10 9 0 16 5 16 10 0 6 -4 10 -9 10 -6 0
-13 -4 -16 -10z"/>
<path d="M3620 8396 c0 -10 -10 -13 -35 -11 -19 2 -35 -1 -35 -6 0 -5 11 -10
25 -10 14 -1 30 -2 36 -3 7 -1 15 9 20 22 5 13 5 22 -1 22 -6 0 -10 -6 -10
-14z"/>
<path d="M3530 8349 c0 -5 5 -7 10 -4 6 3 10 8 10 11 0 2 -4 4 -10 4 -5 0 -10
-5 -10 -11z"/>
<path d="M3495 8310 c-3 -5 -1 -10 4 -10 6 0 11 5 11 10 0 6 -2 10 -4 10 -3 0
-8 -4 -11 -10z"/>
<path d="M3475 8280 c3 -5 8 -10 11 -10 2 0 4 5 4 10 0 6 -5 10 -11 10 -5 0
-7 -4 -4 -10z"/>
<path d="M3405 8250 c-3 -5 3 -10 14 -10 12 0 21 5 21 10 0 6 -6 10 -14 10 -8
0 -18 -4 -21 -10z"/>
<path d="M3467 8233 c-4 -3 -7 -13 -7 -22 1 -13 3 -13 11 2 11 19 8 33 -4 20z"/>
<path d="M3425 8210 c-3 -5 -1 -10 4 -10 6 0 11 5 11 10 0 6 -2 10 -4 10 -3 0
-8 -4 -11 -10z"/>
<path d="M3395 8110 c-4 -6 -11 -8 -16 -5 -5 4 -9 2 -9 -3 0 -6 6 -12 13 -15
16 -6 57 10 57 23 0 13 -37 13 -45 0z"/>
<path d="M3405 8021 c-3 -5 -2 -12 3 -15 5 -3 9 1 9 9 0 17 -3 19 -12 6z"/>
<path d="M3625 7989 c-4 -6 -4 -13 -1 -16 4 -4 -6 -19 -21 -35 -14 -15 -24
-30 -21 -33 6 -7 62 64 64 82 3 16 -12 17 -21 2z"/>
<path d="M3525 7870 c-3 -5 -1 -10 4 -10 6 0 11 5 11 10 0 6 -2 10 -4 10 -3 0
-8 -4 -11 -10z"/>
<path d="M3896 7826 c-14 -19 -33 -41 -42 -50 -8 -9 -11 -16 -5 -16 16 0 81
69 81 85 0 22 -5 19 -34 -19z"/>
<path d="M3739 7783 l-24 -28 28 24 c25 23 32 31 24 31 -2 0 -14 -12 -28 -27z"/>
<path d="M3751 7742 c-6 -11 -7 -23 -3 -27 4 -4 -3 -4 -15 -1 -13 4 -24 2 -29
-5 -5 -9 -2 -10 9 -6 10 3 17 2 17 -3 0 -21 28 3 33 28 7 34 2 40 -12 14z"/>
<path d="M3864 7735 c-10 -8 -14 -15 -8 -15 6 0 17 7 24 15 16 19 9 19 -16 0z"/>
<path d="M3340 7713 c0 -5 10 -18 23 -29 l22 -19 -20 25 c-11 14 -21 27 -22
29 -2 2 -3 0 -3 -6z"/>
<path d="M3656 7701 c-10 -11 -16 -25 -14 -31 2 -6 11 3 21 20 21 34 18 39 -7
11z"/>
<path d="M3826 7712 c-3 -5 1 -9 9 -9 8 0 12 4 9 9 -3 4 -7 8 -9 8 -2 0 -6 -4
-9 -8z"/>
<path d="M3783 7695 c-3 -9 -3 -18 -1 -21 3 -3 8 4 11 16 6 23 -1 27 -10 5z"/>
<path d="M3606 7665 c-10 -8 -23 -12 -29 -8 -6 3 -7 2 -4 -4 4 -6 2 -25 -3
-44 -7 -22 -6 -37 1 -44 7 -7 8 -4 3 10 -7 17 -5 18 8 8 8 -7 17 -10 21 -7 9
9 -4 35 -14 28 -5 -3 -9 2 -9 10 0 17 16 30 23 19 2 -5 2 -2 1 4 -2 7 4 17 14
22 9 5 15 12 12 14 -3 3 -14 -1 -24 -8z"/>
<path d="M3666 7665 c-9 -26 -7 -32 5 -12 6 10 9 21 6 23 -2 3 -7 -2 -11 -11z"/>
<path d="M3471 7655 c1 -19 18 -51 18 -35 0 8 -4 22 -9 30 -5 8 -9 11 -9 5z"/>
<path d="M3544 7634 c6 -26 5 -27 -8 -11 -10 12 -16 15 -21 7 -4 -6 -4 -14 -1
-17 3 -3 1 -12 -5 -20 -9 -10 -7 -13 6 -13 34 0 60 60 34 76 -9 5 -10 -1 -5
-22z"/>
<path d="M3714 7639 c-19 -22 -19 -22 4 -8 12 8 22 17 22 21 0 12 -6 9 -26
-13z"/>
<path d="M3616 7614 c-5 -14 -4 -15 9 -4 17 14 19 20 6 20 -5 0 -12 -7 -15
-16z"/>
<path d="M3456 7607 c3 -10 9 -15 12 -12 3 3 0 11 -7 18 -10 9 -11 8 -5 -6z"/>
<path d="M3708 7606 c-10 -7 -18 -19 -18 -25 0 -8 6 -6 16 4 13 12 19 13 24 4
6 -9 14 -8 31 5 13 9 19 16 13 16 -5 0 -16 -6 -23 -12 -11 -11 -13 -10 -8 5 8
20 -10 22 -35 3z"/>
<path d="M3830 7600 c-9 -6 -10 -10 -3 -10 6 0 15 5 18 10 8 12 4 12 -15 0z"/>
<path d="M3703 7557 c-10 -17 15 -31 32 -17 8 7 15 15 15 19 0 10 -41 8 -47
-2z"/>
<path d="M3660 7543 c0 -6 8 -17 18 -24 16 -13 16 -13 2 6 -8 11 -16 22 -17
24 -2 2 -3 0 -3 -6z"/>
<path d="M3650 7490 c0 -5 5 -10 11 -10 5 0 7 5 4 10 -3 6 -8 10 -11 10 -2 0
-4 -4 -4 -10z"/>
<path d="M3800 7484 c-17 -9 -20 -14 -9 -14 9 0 22 7 29 15 15 18 13 18 -20
-1z"/>
<path d="M4032 7470 c0 -14 2 -19 5 -12 2 6 2 18 0 25 -3 6 -5 1 -5 -13z"/>
<path d="M3952 7451 c4 -13 18 -16 19 -4 0 4 -5 9 -11 12 -7 2 -11 -2 -8 -8z"/>
<path d="M3935 7399 c-4 -6 -13 -8 -21 -5 -21 8 -29 -40 -11 -68 23 -34 52
-39 53 -9 1 12 -2 20 -7 17 -5 -3 -6 1 -3 9 3 8 1 18 -5 22 -6 3 -11 11 -11
16 0 15 49 -24 50 -39 0 -7 4 -11 9 -8 14 9 2 39 -24 59 -16 11 -26 13 -30 6z"/>
<path d="M4017 7341 c-4 -17 -3 -21 5 -13 5 5 8 16 6 23 -3 8 -7 3 -11 -10z"/>
<path d="M3851 7305 c0 -15 25 -45 37 -45 5 0 13 7 16 16 4 11 1 14 -12 12 -9
-2 -22 3 -29 12 -7 8 -12 11 -12 5z"/>
<path d="M3914 7214 c-4 -14 -2 -30 2 -34 9 -9 89 10 115 26 16 10 -39 34 -77
34 -28 0 -35 -4 -40 -26z"/>
<path d="M3940 7161 c-44 -8 -48 -30 -25 -152 11 -60 15 -134 14 -236 -2 -119
1 -158 15 -200 10 -29 21 -53 26 -53 14 0 31 27 51 82 26 70 37 299 20 425 -6
48 -12 100 -13 116 -3 29 -13 31 -88 18z"/>
<path d="M4220 7005 c0 -8 5 -15 10 -15 6 0 10 -7 10 -16 0 -10 6 -14 14 -11
8 3 26 -5 40 -18 14 -13 26 -20 26 -15 0 5 -11 17 -24 26 -15 9 -22 21 -19 30
3 8 0 14 -7 14 -6 0 -8 -5 -4 -12 4 -7 3 -8 -4 -4 -6 4 -9 13 -5 21 3 10 -2
15 -16 15 -12 0 -21 -6 -21 -15z"/>
<path d="M4380 6971 c0 -14 20 -30 72 -55 91 -46 92 -47 132 -122 34 -64 34
-64 13 -76 -21 -11 -21 -11 -2 -19 11 -4 34 -8 52 -8 l31 -1 -14 -47 c-8 -25
-12 -49 -9 -51 3 -3 5 0 5 6 0 14 36 16 44 3 3 -5 15 -7 26 -4 11 3 27 0 35
-7 8 -6 18 -9 24 -6 17 11 41 -6 41 -28 0 -22 17 -46 32 -46 11 0 10 58 -3
105 -22 80 -123 196 -262 300 -37 27 -163 75 -199 75 -11 0 -18 -7 -18 -19z"/>
<path d="M4244 6655 c-37 -18 -43 -25 -53 -73 -10 -39 -10 -74 -1 -145 9 -76
29 -387 30 -477 1 -14 2 -45 2 -70 1 -25 1 -67 0 -95 -1 -27 -3 -214 -4 -415
-2 -201 -6 -370 -11 -377 -4 -6 -12 -95 -18 -198 -6 -102 -17 -216 -26 -253
-9 -37 -17 -87 -19 -112 -2 -53 -12 -94 -30 -129 -8 -14 -14 -32 -14 -38 0 -7
-4 -13 -9 -13 -5 0 -12 -12 -15 -27 -8 -32 -69 -127 -103 -161 -16 -16 -23
-33 -21 -50 3 -24 9 -28 48 -34 119 -18 292 -6 405 27 44 12 55 20 63 45 11
30 7 49 -30 142 -10 26 -18 54 -18 64 0 9 -7 37 -15 63 -7 25 -19 64 -25 86
-13 49 -30 285 -30 420 0 55 -7 147 -15 205 -15 110 -20 400 -7 400 4 0 8 114
9 253 1 138 7 268 13 287 13 44 12 228 -1 295 -6 28 -12 59 -13 70 -2 11 -7
28 -11 37 -4 9 -5 21 -2 25 3 4 0 49 -5 98 -5 50 -11 105 -13 124 -4 46 -14
50 -61 26z"/>
<path d="M409 5961 c-21 -5 -25 -10 -18 -26 6 -17 8 -17 8 -2 1 9 8 17 16 17
8 0 12 -6 10 -12 -15 -40 154 -67 190 -32 26 26 14 48 -30 56 -48 8 -140 8
-176 -1z"/>
<path d="M5232 5585 c-2 -80 4 -105 23 -105 31 0 32 57 1 125 l-23 50 -1 -70z"/>
<path d="M148 5423 c-135 -3 -148 -5 -148 -22 0 -52 69 -69 335 -82 205 -10
283 -10 290 1 2 3 6 25 10 49 5 31 3 46 -7 52 -12 8 -141 9 -480 2z"/>
<path d="M5540 5126 c0 -2 8 -10 18 -17 15 -13 16 -12 3 4 -13 16 -21 21 -21
13z"/>
<path d="M6577 4990 c-88 -76 -138 -134 -150 -175 -3 -11 -17 -60 -32 -110
-46 -157 -58 -209 -101 -420 -9 -44 -20 -98 -25 -120 -4 -22 -8 -72 -9 -112 0
-40 -5 -106 -11 -147 -7 -48 -8 -80 -1 -91 8 -15 16 -9 52 45 64 95 96 174
110 275 40 288 112 614 166 753 14 35 24 75 22 90 -3 25 -4 26 -21 12z"/>
<path d="M5671 4904 c6 -22 11 -45 11 -51 2 -18 12 -16 31 5 16 17 15 20 -17
51 l-34 33 9 -38z"/>
<path d="M6743 4787 c-11 -18 -23 -46 -27 -62 -4 -17 -22 -59 -40 -95 -19 -36
-41 -99 -50 -140 -51 -229 -181 -531 -296 -685 -98 -131 -124 -234 -62 -243
29 -4 275 62 370 99 62 25 170 75 180 84 2 2 -6 21 -17 43 -30 59 -99 295
-111 382 -13 87 -5 255 16 349 9 38 26 80 42 100 43 56 61 101 52 131 -8 29
-28 70 -34 70 -2 0 -13 -15 -23 -33z"/>
<path d="M6151 4776 c-12 -15 -33 -252 -30 -347 1 -31 -1 -62 -5 -68 -4 -7 -1
-22 6 -34 11 -17 13 -40 8 -97 -4 -41 -10 -86 -14 -100 -4 -17 0 -33 13 -49
21 -27 41 -21 41 12 0 12 9 67 19 122 11 55 23 134 27 175 3 41 11 81 16 87 6
7 8 30 4 50 -3 21 -10 79 -16 128 -5 50 -14 100 -20 113 -11 25 -32 29 -49 8z"/>
<path d="M8900 4586 c0 -8 5 -18 10 -21 6 -3 10 3 10 14 0 12 -4 21 -10 21 -5
0 -10 -6 -10 -14z"/>
<path d="M8830 4565 c0 -6 4 -17 10 -25 6 -9 5 -17 -3 -23 -8 -6 -8 -7 3 -4 8
2 14 13 12 23 -4 21 -22 45 -22 29z"/>
<path d="M8806 4487 c3 -10 9 -15 12 -12 3 3 0 11 -7 18 -10 9 -11 8 -5 -6z"/>
<path d="M8971 4345 c0 -12 -5 -26 -11 -33 -5 -7 -3 -6 6 2 9 7 14 22 11 32
-4 17 -5 17 -6 -1z"/>
<path d="M8316 4281 c4 -8 11 -28 15 -45 6 -29 7 -29 8 -5 1 14 -6 34 -15 45
-8 10 -12 13 -8 5z"/>
<path d="M8783 4273 c-7 -2 -13 -9 -13 -15 0 -6 6 -6 15 2 12 10 13 7 5 -19
-5 -19 -5 -31 1 -31 5 0 9 -9 9 -19 0 -11 5 -23 12 -27 7 -4 8 -3 4 4 -4 7 -7
34 -8 62 0 50 -2 53 -25 43z"/>
<path d="M8913 4265 c-3 -9 -3 -18 -1 -21 3 -3 8 4 11 16 6 23 -1 27 -10 5z"/>
<path d="M8946 4263 c-6 -14 -5 -15 5 -6 7 7 10 15 7 18 -3 3 -9 -2 -12 -12z"/>
<path d="M8777 4186 c-5 -11 -3 -22 3 -26 7 -4 11 -13 10 -21 -5 -31 2 -43 11
-21 5 14 13 20 20 16 8 -4 9 -3 5 5 -4 6 -11 9 -16 6 -5 -3 -13 9 -18 27 -7
27 -9 29 -15 14z"/>
<path d="M8831 4180 c0 -14 4 -32 9 -40 9 -13 10 -13 9 0 -1 8 -5 26 -9 40
l-8 25 -1 -25z"/>
<path d="M8544 4140 c0 -13 4 -16 10 -10 7 7 7 13 0 20 -6 6 -10 3 -10 -10z"/>
<path d="M8760 4130 c0 -11 4 -20 8 -20 4 0 8 9 8 20 0 11 -4 20 -8 20 -4 0
-8 -9 -8 -20z"/>
<path d="M8820 4105 c0 -9 6 -12 15 -9 8 4 15 7 15 9 0 2 -7 5 -15 9 -9 3 -15
0 -15 -9z"/>
<path d="M8330 4089 c7 -11 14 -19 16 -16 7 7 -7 37 -17 37 -6 0 -5 -9 1 -21z"/>
<path d="M8551 4094 c0 -11 3 -14 6 -6 3 7 2 16 -1 19 -3 4 -6 -2 -5 -13z"/>
<path d="M8920 4068 c0 -9 5 -20 10 -23 13 -8 13 5 0 25 -8 13 -10 13 -10 -2z"/>
<path d="M8311 4054 c0 -11 3 -14 6 -6 3 7 2 16 -1 19 -3 4 -6 -2 -5 -13z"/>
<path d="M8563 4018 c1 -32 5 -58 8 -58 10 0 17 48 8 57 -4 4 -9 19 -12 33 -3
14 -4 -1 -4 -32z"/>
<path d="M8335 4050 c4 -6 11 -8 16 -5 14 9 11 15 -7 15 -8 0 -12 -5 -9 -10z"/>
<path d="M8890 4040 c0 -5 5 -10 10 -10 6 0 10 5 10 10 0 6 -4 10 -10 10 -5 0
-10 -4 -10 -10z"/>
<path d="M8316 4014 c-8 -21 -8 -59 1 -51 7 8 15 67 9 67 -2 0 -7 -7 -10 -16z"/>
<path d="M8886 4011 c-4 -7 -5 -15 -2 -18 9 -9 19 4 14 18 -4 11 -6 11 -12 0z"/>
<path d="M8821 3984 c0 -11 3 -14 6 -6 3 7 2 16 -1 19 -3 4 -6 -2 -5 -13z"/>
<path d="M8851 3983 c-1 -12 4 -25 9 -28 12 -7 12 2 0 30 -8 19 -9 19 -9 -2z"/>
<path d="M8794 3976 c4 -10 1 -26 -6 -35 -11 -14 -10 -14 6 0 15 14 16 20 6
35 -11 18 -11 18 -6 0z"/>
<path d="M8835 3929 c-4 -12 -3 -25 2 -30 6 -6 10 2 10 21 0 35 -3 38 -12 9z"/>
<path d="M8726 3905 c-9 -26 -7 -32 5 -12 6 10 9 21 6 23 -2 3 -7 -2 -11 -11z"/>
<path d="M8760 3899 c0 -10 5 -19 11 -19 5 0 8 4 4 9 -7 13 12 24 26 15 6 -4
7 -10 2 -15 -5 -5 -7 -23 -5 -40 3 -21 7 -27 13 -18 4 7 3 21 -2 30 -5 11 -5
20 0 23 5 4 12 0 14 -6 3 -7 6 -8 6 -3 1 20 -17 38 -43 40 -20 3 -26 -1 -26
-16z"/>
<path d="M8326 3897 c3 -10 9 -15 12 -12 3 3 0 11 -7 18 -10 9 -11 8 -5 -6z"/>
<path d="M8755 3860 c-3 -5 -1 -10 4 -10 6 0 11 5 11 10 0 6 -2 10 -4 10 -3 0
-8 -4 -11 -10z"/>
<path d="M8770 3830 c-6 -11 -8 -20 -6 -20 3 0 10 9 16 20 6 11 8 20 6 20 -3
0 -10 -9 -16 -20z"/>
<path d="M8775 3801 c-3 -5 -1 -12 5 -16 5 -3 10 1 10 9 0 18 -6 21 -15 7z"/>
<path d="M8570 3773 c0 -37 16 -83 28 -83 12 0 -4 90 -18 104 -7 7 -10 -1 -10
-21z"/>
<path d="M8720 3786 c0 -2 7 -9 15 -16 13 -11 14 -10 9 4 -5 14 -24 23 -24 12z"/>
<path d="M9266 3715 c-3 -8 -1 -15 4 -15 6 0 10 7 10 15 0 8 -2 15 -4 15 -2 0
-6 -7 -10 -15z"/>
<path d="M8750 3463 c0 -5 4 -15 10 -23 11 -18 25 -7 17 15 -6 15 -27 21 -27
8z"/>
<path d="M8735 3431 c-3 -5 -1 -12 5 -16 5 -3 10 1 10 9 0 18 -6 21 -15 7z"/>
<path d="M8230 3420 c0 -5 4 -10 8 -10 5 0 14 -10 20 -22 l11 -23 0 22 c1 13
-8 27 -19 33 -14 7 -20 7 -20 0z"/>
<path d="M6226 3402 c-3 -6 -1 -14 5 -17 14 -9 20 -2 10 14 -6 8 -11 9 -15 3z"/>
<path d="M6243 3333 c-7 -2 -13 -13 -13 -24 0 -11 -7 -22 -15 -25 -22 -9 -18
-24 6 -24 13 0 18 4 13 13 -6 10 -4 10 7 0 7 -7 22 -13 32 -13 15 0 17 3 8 14
-6 7 -12 25 -13 40 -2 27 -4 28 -25 19z"/>
<path d="M9187 3153 c-4 -3 -7 -11 -7 -17 0 -6 5 -5 12 2 6 6 9 14 7 17 -3 3
-9 2 -12 -2z"/>
<path d="M6270 3125 c0 -8 5 -15 10 -15 6 0 10 7 10 15 0 8 -4 15 -10 15 -5 0
-10 -7 -10 -15z"/>
<path d="M9076 3093 c-5 -11 12 -31 17 -22 2 2 8 11 14 19 10 13 8 16 -7 16
-11 0 -22 -6 -24 -13z"/>
<path d="M8181 3044 c0 -11 3 -14 6 -6 3 7 2 16 -1 19 -3 4 -6 -2 -5 -13z"/>
<path d="M6245 2989 c-4 -6 -5 -13 -2 -15 8 -8 77 7 77 17 0 13 -67 11 -75 -2z"/>
<path d="M6816 2634 c-8 -20 -4 -25 11 -16 7 4 9 13 4 21 -6 10 -10 9 -15 -5z"/>
<path d="M8141 2594 c0 -11 3 -14 6 -6 3 7 2 16 -1 19 -3 4 -6 -2 -5 -13z"/>
<path d="M4685 1644 c-229 -46 -282 -65 -331 -116 -26 -27 -32 -38 -19 -33
173 64 217 76 326 91 123 16 162 25 173 42 9 15 -96 26 -149 16z"/>
<path d="M1079 1305 c11 -22 21 -45 21 -50 0 -6 37 -51 83 -99 45 -49 85 -95
90 -102 4 -7 22 -23 40 -35 22 -15 13 -2 -29 42 -33 35 -96 111 -138 169 -93
125 -94 126 -67 75z"/>
<path d="M373 953 c9 -2 23 -2 30 0 6 3 -1 5 -18 5 -16 0 -22 -2 -12 -5z"/>
<path d="M3843 953 c9 -2 25 -2 35 0 9 3 1 5 -18 5 -19 0 -27 -2 -17 -5z"/>
<path d="M3913 943 c9 -2 25 -2 35 0 9 3 1 5 -18 5 -19 0 -27 -2 -17 -5z"/>
<path d="M203 933 c9 -2 25 -2 35 0 9 3 1 5 -18 5 -19 0 -27 -2 -17 -5z"/>
<path d="M4035 925 c64 -17 151 -29 280 -40 44 -4 102 -11 129 -16 27 -5 64
-9 83 -9 21 0 32 -4 28 -10 -4 -7 2 -9 18 -5 14 4 71 -1 128 -9 57 -9 147 -23
199 -31 133 -21 417 -53 530 -60 154 -10 427 -50 446 -66 6 -5 13 -6 17 -3 3
3 47 1 99 -5 51 -5 136 -12 188 -15 119 -6 68 5 -165 34 -88 11 -227 29 -310
40 -82 11 -199 24 -260 30 -115 10 -218 22 -345 40 -41 6 -147 19 -235 30 -88
11 -214 26 -280 35 -135 17 -508 63 -570 70 -29 3 -24 0 20 -10z"/>
<path d="M40 920 c-40 -6 -41 -7 -10 -8 19 0 60 3 90 8 54 7 54 7 10 7 -25 0
-65 -3 -90 -7z"/>
<path d="M3343 873 c9 -2 23 -2 30 0 6 3 -1 5 -18 5 -16 0 -22 -2 -12 -5z"/>
<path d="M3408 863 c6 -2 18 -2 25 0 6 3 1 5 -13 5 -14 0 -19 -2 -12 -5z"/>
<path d="M3473 853 c9 -2 23 -2 30 0 6 3 -1 5 -18 5 -16 0 -22 -2 -12 -5z"/>
<path d="M3608 833 c7 -3 16 -2 19 1 4 3 -2 6 -13 5 -11 0 -14 -3 -6 -6z"/>
<path d="M4575 830 c-4 -7 3 -9 20 -6 37 7 44 16 12 16 -14 0 -29 -5 -32 -10z"/>
<path d="M3664 823 c11 -3 14 -8 9 -12 -6 -3 26 -7 71 -8 44 -1 133 -12 196
-23 119 -21 564 -81 590 -79 30 2 -69 19 -235 39 -93 11 -235 32 -315 45 -80
13 -172 27 -205 30 -33 3 -76 8 -95 10 -19 2 -26 1 -16 -2z"/>
<path d="M4453 823 c9 -2 23 -2 30 0 6 3 -1 5 -18 5 -16 0 -22 -2 -12 -5z"/>
<path d="M4538 823 c7 -3 16 -2 19 1 4 3 -2 6 -13 5 -11 0 -14 -3 -6 -6z"/>
<path d="M4648 823 c6 -2 18 -2 25 0 6 3 1 5 -13 5 -14 0 -19 -2 -12 -5z"/>
<path d="M3510 750 c-14 -4 -49 -8 -77 -9 -29 -1 -53 -5 -53 -9 0 -10 126 3
160 17 29 12 6 13 -30 1z"/>
<path d="M4563 693 c9 -2 23 -2 30 0 6 3 -1 5 -18 5 -16 0 -22 -2 -12 -5z"/>
<path d="M3233 683 c9 -2 23 -2 30 0 6 3 -1 5 -18 5 -16 0 -22 -2 -12 -5z"/>
<path d="M4765 665 c49 -11 165 -21 157 -13 -5 5 -46 10 -93 13 -46 2 -75 2
-64 0z"/>
<path d="M6288 643 c7 -3 16 -2 19 1 4 3 -2 6 -13 5 -11 0 -14 -3 -6 -6z"/>
<path d="M3758 633 c7 -3 16 -2 19 1 4 3 -2 6 -13 5 -11 0 -14 -3 -6 -6z"/>
<path d="M6348 633 c6 -2 18 -2 25 0 6 3 1 5 -13 5 -14 0 -19 -2 -12 -5z"/>
<path d="M3660 618 c-25 -6 -40 -12 -35 -14 6 -2 35 3 65 10 64 16 37 19 -30
4z"/>
<path d="M2993 543 c9 -9 19 -14 23 -11 10 10 -6 28 -24 28 -15 0 -15 -1 1
-17z"/>
<path d="M6905 540 c-6 -9 48 -17 179 -26 72 -5 97 -4 92 5 -4 7 -40 11 -89
12 -45 0 -104 4 -130 8 -26 4 -50 5 -52 1z"/>
<path d="M7263 513 c9 -2 23 -2 30 0 6 3 -1 5 -18 5 -16 0 -22 -2 -12 -5z"/>
<path d="M7370 497 c34 -17 39 -60 8 -82 l-23 -16 30 6 c32 7 195 66 195 70 0
4 -113 21 -185 29 -45 5 -48 5 -25 -7z"/>
<path d="M973 493 c15 -2 37 -2 50 0 12 2 0 4 -28 4 -27 0 -38 -2 -22 -4z"/>
<path d="M0 200 l0 -200 205 0 c177 0 205 2 205 15 0 9 -6 18 -14 21 -8 3 -27
29 -42 57 -14 29 -32 59 -39 67 -7 8 -20 30 -29 47 -11 22 -34 42 -69 59 -28
15 -56 33 -60 40 -4 8 -27 24 -50 35 -23 12 -49 27 -57 34 -8 6 -23 15 -32 18
-17 6 -18 -7 -18 -193z"/>
<path d="M7125 375 c-104 -12 -488 -95 -480 -103 10 -11 207 22 295 49 52 16
138 34 190 39 52 6 111 15 130 19 l35 9 -35 0 c-19 0 -80 -6 -135 -13z"/>
<path d="M6560 263 c-14 -2 -83 -14 -155 -28 -71 -13 -218 -40 -325 -60 -107
-20 -235 -45 -283 -56 -48 -10 -136 -26 -195 -34 -130 -18 -267 -53 -212 -54
19 -1 76 6 125 14 50 9 117 20 150 26 33 5 71 14 85 19 14 5 56 11 94 14 37 3
85 10 105 15 20 6 56 13 81 16 25 3 81 15 124 26 43 11 156 35 250 54 163 32
248 55 201 53 -11 0 -31 -2 -45 -5z"/>
<path d="M5168 3 c12 -2 32 -2 45 0 12 2 2 4 -23 4 -25 0 -35 -2 -22 -4z"/>
</g>
</svg>
